<?xml version="1.0" encoding="utf-8"?>
<!-- Generator: Adobe Illustrator 15.0.0, SVG Export Plug-In  -->
<!DOCTYPE svg PUBLIC "-//W3C//DTD SVG 1.1//EN" "http://www.w3.org/Graphics/SVG/1.1/DTD/svg11.dtd" [
	<!ENTITY ns_flows "http://ns.adobe.com/Flows/1.0/">
]>
<svg version="1.1"
	 xmlns="http://www.w3.org/2000/svg" xmlns:xlink="http://www.w3.org/1999/xlink" xmlns:a="http://ns.adobe.com/AdobeSVGViewerExtensions/3.0/"
	 x="0px" y="0px" width="1254px" height="450px" viewBox="0 214.298 1254 450" enable-background="new 0 214.298 1254 450"
	 xml:space="preserve">
<defs>
</defs>
<path display="none" fill="#E85658" d="M506.242,1.87c-2.626-3.897-4.953-1.033-4.975,2.499c0,3.809,1.216,9.472,1.588,11.238
	c1.41,7.04,2.942,14.014,4.314,21.032c2.876,14.491,4.614,29.027,6.501,43.641c1.965,15.18,4.719,51.479,4.531,72.423
	c-0.122,18.478-1.699,39.188-1.999,43.773c-0.583,9.628-2.626,20.344-4.242,31.06c-0.95,6.308-2.471,12.892-5.274,19.988
	c-3.915,9.705-9.85,23.708-10.899,30.182c-1.527,9.006,5.869,14.225,13.609,11.826c5.252-1.621,8.067-8.462,9.488-13.248
	c4.636-15.579,6.469-32.436,8.162-48.493c1.149-10.615,1.943-21.254,2.282-31.881c0.3-10.094,0.478-40.098-0.822-58.887
	c-1.061-15.391-2.843-27.738-3.803-37.222C523.787,90.649,514.393,13.84,506.242,1.87z"/>
<path display="none" fill="#E85658" d="M565.208,402.67c-16.634,1.876-31.687,8.195-49.432,13.792
	c0.478-12.07-1.649-26.706-13.103-33.357c-12.332-7.129-28.916-2.421-41.169,2.376c-8.345,3.298-13.803,5.952-21.81,12.348
	c-2.759,2.21-8.189,7.285-10.949,9.505c-1.982,1.644-4.947,1.666-4.742-1.91c0.289-5.408-8.262-7.351-10.166-0.466
	c-1.866,6.762-0.622,14.969-0.694,21.942c-0.061,5.052-0.133,10.149,0.395,15.191c0.361,3.62,3.542,14.725,2.182,16.9
	c-1.399,2.177-8.118,1.977-11.416,3.554c-4.048,2.021-8.495,8.684-5.241,13.836c3.598,5.708,12.931-7.528,17.439-5.974
	c4.547,1.609,3.143,31.825,12.404,37.066c5.885,3.364,13.847-0.777,11.943-7.995c-1.927-7.284-7.313-13.736-9.739-20.999
	c-1.133-3.408-4.159-10.716-1.688-13.625c2.332-2.731,5.575-4.353,8.728-5.907c7.14-3.554,18.45-12.126,20.421-10.527
	c2.004,1.633,1.771,11.382,2.038,17.356c0.122,2.554,2.82,13.181-0.239,15.357c-4.531,3.31-15.713,6.085-14.142,9.738
	c2.276,5.342,10.827-2.543,15.069-4.164c5.152-1.998,9.933-3.021,15.402-3.809c10.232-1.41,20.121-1.177,30.443-0.622
	c3.342,0.189,7.74,0.633,10.766-1.188c2.093-1.244,2.321-4.575,0.117-5.896c-4.442-2.688-17.04-1.344-21.432-0.767
	c5.48-8.073,10.077-18.967,13.025-27.328c1.36-3.942,2.459-7.906,2.865-12.004c0.327-3.021,2.448-7.707,4.819-9.949
	c4.358-4.131,10.815-6.685,16.435-7.818c8.206-1.666,15.08-3.154,23.002-3.687c7.912-0.511,16.429,0.688,18.628-3.42
	C577.756,405.702,572.409,401.826,565.208,402.67z M492.99,470.307c-1.688,4.253-1.843,5.83-6.18,6.652
	c-2.354,0.443-7.751,0.821-10.127,1.088c-6.113,0.666-6.38-1.466-6.935-8.062c-0.478-5.83-1.177-11.549-1.815-17.346
	c-0.472-4.486-0.594-8.694,4.248-10.249c9.211-3.043,14.835-7.041,20.038-9.472c0.894-0.422,8.445-3.82,9.96-2.788
	C505.994,432.763,498.121,457.471,492.99,470.307z M503.673,420.038c-11.104,4.753-32.475,17.479-36.089,15.036
	c-2.11-1.399-0.678-7.962-0.578-12.326c0.105-3.243-0.822-8.484-6.007-7.595c-2.365,0.389-3.925,3.809-3.398,8.195
	c1.033,7.873,0.544,15.18-3.215,17.423c-2.376,1.433-17.34,8.829-29.205,12.848c-0.95-6.219-1.816-11.849-1.683-16.19
	c0.194-6.629,1.838-11.526,5.103-18.444c2.543-5.397,7.995-10.05,10.793-11.893c6.985-4.575,12.365-7.484,20.132-10.594
	c7.801-3.087,17.412-3.109,25.529-1.843c-5.191-0.811,10.466,1.599,0,0C495.522,396.252,505.394,404.78,503.673,420.038z"/>
<path fill="#E85658" d="M177.841,348.658c2.915-1.421,8.211-4.73,12.37-8.295c5.73-4.919,22.176-25.207,28.899-36.544
	c1.899-3.209,8.117-13.781,11.171-21.188c2.798-6.829,3.359-13.98,7.251-17.878c3.481-3.521,9.572-4.886,12.587-3.021
	c5.802,3.62,2.082,14.058-1.943,20.576c-4.419,7.118-10.077,13.204-15.446,19.622c-6.202,7.362-13.62,15.702-21.343,24.33
	c-6.657,6.785-12.776,12.87-13.109,13.403l36.7-17.556c8.456-3.864,22.12-9.139,30.465-12.259
	c22.303-8.272,36.2-14.213,56.011-21.631c11.981-4.497,29.649-9.728,56.21-17.678c4.153-1.232,14.292-4.142,18.544-4.63
	c5.091-0.622,8.095-1.244,13.187-1.566c7.584-0.5,15.257,8.006,11.166,14.125c-4.075,6.096-17.778,1.921-25.207,2.543
	c-10.055,0.899-25.013,2.365-34.957,4.264c-18.716,3.531-33.607,8.261-51.541,14.569c-37.161,13.081-73.489,24.896-108.34,43.596
	c-16.846,9.039-33.019,19.144-49.587,28.594c-15.563,8.917-28.411,20.243-42.136,31.659c-5.997,4.997-11.876,10.194-18.184,14.791
	c-4.048,2.976-10.721,6.84-15.907,4.708c-6.457-2.643-5.369-10.727-2.482-15.058c4.564-6.962,11.898-9.461,18.944-12.748
	c14.28-6.651,27.717-14.513,41.664-21.831c7.684-4.02,15.269-8.217,22.719-12.648C159.563,358.519,174.998,350.091,177.841,348.658z
	"/>
<path fill="#E85658" d="M169.074,348.703c0.133-1.288-2.893-1.843-5.419-2.154c-1.227-0.144-4.059-0.044-7.967-1.144
	c-3.931-1.122-11.26-3.787-15.624-9.361c-4.009-5.097-6.357-10.183-9.078-16.501c-1.999-4.675-8.583-8.861-13.608-6.641
	c-4.708,2.043-6.657,7.229-4.947,12.259c1.96,5.886,8.067,11.038,12.375,14.458c5.313,4.198,12.021,5.575,18.872,7.573
	c6.058,1.744,12.67,2.843,14.375,3.032C161.75,350.657,168.896,350.479,169.074,348.703z"/>
<path fill="#E85658" d="M248.565,376.164c-2.626-3.897-4.953-1.033-4.975,2.499c0,3.809,1.216,9.472,1.588,11.238
	c1.41,7.04,2.942,14.014,4.314,21.032c2.876,14.491,4.614,29.027,6.501,43.641c1.965,15.18,4.719,51.479,4.531,72.423
	c-0.122,18.478-1.699,39.188-1.999,43.773c-0.583,9.628-2.626,20.344-4.242,31.06c-0.95,6.308-2.471,12.892-5.274,19.988
	c-3.915,9.705-9.85,23.708-10.899,30.182c-1.527,9.006,5.869,14.225,13.609,11.826c5.252-1.621,8.067-8.462,9.488-13.248
	c4.636-15.579,6.469-32.436,8.162-48.493c1.149-10.615,1.943-21.254,2.282-31.881c0.3-10.094,0.478-40.098-0.822-58.887
	c-1.061-15.391-2.843-27.738-3.803-37.222C266.11,464.944,256.716,388.135,248.565,376.164z"/>
<path fill="#E85658" d="M158.214,469.408c-0.217,5.309,0.505,10.36,0.144,13.07c-0.372,2.743-21.903,9.717-21.47,1.844
	c0.411-7.862,8.739-9.605,11.537-10.539c6.985-2.298,7.573-9.683-1.638-8.35c-6.613,0.921-8.711,1.076-10.177-0.812
	c-3.986-5.097,0.178-19.199-6.046-20.831c-6.585-1.678-5.08,11.227-4.792,14.413c0.744,9.028,0.988,18.145,1.166,27.229
	c0.361,19.41-0.55,38.565-3.409,57.754c-1.177,7.795-2.371,16.179,4.437,21.765c4.597,3.731,12.004,4.73,14.641-1.688
	c4.419-10.972-2.349-26.385-3.298-37.667c-0.566-6.729-3.253-19.011,1.033-24.984c4.325-5.93,19.844-11.083,20.122-9.816
	c0.233,1.243,0.494,22.598-0.361,34.046c-0.483,6.685-4.348,14.191,0.927,19.544c2.771,2.776,6.984,2.709,7.601-0.289
	c0.639-3.265,0.683-6.951,0.339-11.46c-1.11-14.901-1.01-29.671-2.493-44.572c-1.305-13.192-0.661-26.474-0.927-39.71
	c-0.216-9.927,3.765-22.253-1.649-31.026c-5.952-9.572-16.945-7.307-24.208-0.633c-4.181,3.875-15.302,19.177-7.307,21.554
	c7.273,2.166,5.574-22.275,19.039-9.561c5.019,4.742,3.503,13.392,5.052,19.999C157.07,451.208,157.908,465.433,158.214,469.408"/>
<path fill="#E85658" d="M197.99,395.73c-1.793,5.519-0.15,12.515,0.838,17.956c1.222,7.04,2.143,14.191,3.581,21.209
	c1.021,5.086,2.343,10.149,6.852,13.203c3.215,2.154,8.967,3.165,10.122-1.843c1.205-5.119-1.116-11.093-2.226-15.902
	c-2.055-8.695-4.131-15.046-5.402-18.922c-1.377-4.253-3.209-9.494-6.857-15.679C202.709,392.01,199.117,392.299,197.99,395.73z"/>
<path fill="#E85658" d="M565.208,402.67c-16.634,1.876-31.687,8.195-49.432,13.792c0.478-12.07-1.649-26.706-13.103-33.357
	c-12.332-7.129-28.916-2.421-41.169,2.376c-8.345,3.298-13.803,5.952-21.81,12.348c-2.759,2.21-8.189,7.285-10.949,9.505
	c-1.982,1.644-4.947,1.666-4.742-1.91c0.289-5.408-8.262-7.351-10.166-0.466c-1.866,6.762-0.622,14.969-0.694,21.942
	c-0.061,5.052-0.133,10.149,0.395,15.191c0.361,3.62,3.542,14.725,2.182,16.9c-1.399,2.177-8.118,1.977-11.416,3.554
	c-4.048,2.021-8.495,8.684-5.241,13.836c3.598,5.708,12.931-7.528,17.439-5.974c4.547,1.609,3.143,31.825,12.404,37.066
	c5.885,3.364,13.847-0.777,11.943-7.995c-1.927-7.284-7.313-13.736-9.739-20.999c-1.133-3.408-4.159-10.716-1.688-13.625
	c2.332-2.731,5.575-4.353,8.728-5.907c7.14-3.554,18.45-12.126,20.421-10.527c2.004,1.633,1.771,11.382,2.038,17.356
	c0.122,2.554,2.82,13.181-0.239,15.357c-4.531,3.31-15.713,6.085-14.142,9.738c2.276,5.342,10.827-2.543,15.069-4.164
	c5.152-1.998,9.933-3.021,15.402-3.809c10.232-1.41,20.121-1.177,30.443-0.622c3.342,0.189,7.74,0.633,10.766-1.188
	c2.093-1.244,2.321-4.575,0.117-5.896c-4.442-2.688-17.04-1.344-21.432-0.767c5.48-8.073,10.077-18.967,13.025-27.328
	c1.36-3.942,2.459-7.906,2.865-12.004c0.327-3.021,2.448-7.707,4.819-9.949c4.358-4.131,10.815-6.685,16.435-7.818
	c8.206-1.666,15.08-3.154,23.002-3.687c7.912-0.511,16.429,0.688,18.628-3.42C577.756,405.702,572.409,401.826,565.208,402.67z
	 M492.99,470.307c-1.688,4.253-1.843,5.83-6.18,6.652c-2.354,0.443-7.751,0.821-10.127,1.088c-6.113,0.666-6.38-1.466-6.935-8.062
	c-0.478-5.83-1.177-11.549-1.815-17.346c-0.472-4.486-0.594-8.694,4.248-10.249c9.211-3.043,14.835-7.041,20.038-9.472
	c0.894-0.422,8.445-3.82,9.96-2.788C505.994,432.763,498.121,457.471,492.99,470.307z M503.673,420.038
	c-11.104,4.753-32.475,17.479-36.089,15.036c-2.11-1.399-0.678-7.962-0.578-12.326c0.105-3.243-0.822-8.484-6.007-7.595
	c-2.365,0.389-3.925,3.809-3.398,8.195c1.033,7.873,0.544,15.18-3.215,17.423c-2.376,1.433-17.34,8.829-29.205,12.848
	c-0.95-6.219-1.816-11.849-1.683-16.19c0.194-6.629,1.838-11.526,5.103-18.444c2.543-5.397,7.995-10.05,10.793-11.893
	c6.985-4.575,12.365-7.484,20.132-10.594c7.801-3.087,17.412-3.109,25.529-1.843c-5.191-0.811,10.466,1.599,0,0
	C495.522,396.252,505.394,404.78,503.673,420.038z"/>
<path fill="#E85658" d="M918.185,297.289c0.767-6.263-2.343-12.881-8.572-11.26c-6.818,1.777-9.783,14.713-9.616,22.131
	c0.222,9.438-1.199,14.358-8.262,17.678c-4.642,2.176-10.683,3.609-15.191,5.741c-14.646,6.907-27.05,12.015-41.886,18.478
	c-8.351,3.642-16.579,7.506-24.508,11.97c-6.207,3.476-19.243,6.729-24.529,6.874c-13.459,0.411-1.477,2.843-9.239,10.26
	c-2.998,2.898-22.708,10.05-33.436,17.201c-4.785,3.231-9.782,7.707-10.805,13.659c-0.955,5.83,3.865,8.85,9.406,8.706
	c13.514-0.4,21.664-13.481,30.859-20.766c5.862-4.653,12.303-10.86,18.366-15.191c4.975-3.575,20.166-12.848,17.944-6.951
	c-2.298,5.885-9.894,21.065-16.845,30.981c-5.253,7.462-23.863,25.917-29.46,31.748c-4.509,4.664-7.707,14.813-3.032,19.244
	c4.687,4.464,10.683-0.199,13.759-5.019c4.242-6.618,8.062-13.581,12.215-20.277c5.774-9.261,11.371-18.633,16.623-28.228
	c2.477-4.597,5.63-12.137,6.674-14.658c1.055-2.532,3.343-10.893,6.641-12.059c1.565,25.54,2.676,55.322,2.11,80.929
	c-0.289,11.948-0.978,22.564-1.244,34.513c-0.089,4.02-0.556,9.872,1.443,13.037c2.644,4.23,10.571,2.176,11.815-1.933
	c1.121-3.753,1.021-6.074,0.377-9.827c-0.933-5.541-2.221-10.027-3.397-23.863c-0.488-5.797-3.165-68.004-3.465-72.646
	c-0.267-4.875-1.154-15.69-1.81-22.076c11.249,9.517,22.265,28.572,32.491,39.065c3.965,4.075,11.116,10.516,17.29,11.304
	c4.853,0.578,8.106-1.732,5.863-6.785c-2.377-5.264-10.438-9.028-14.836-11.027c-4.464-1.999-10.527-5.408-14.769-9.916
	c-8.995-9.483-26.118-30.904-20.677-35.39c6.552-5.396,20.854-11.393,32.991-16.401c5.764-2.365,30.593-13.403,33.613-13.47
	c3.021-0.056-1.966,12.304-5.441,20.709c-1.466,3.653-5.152,9.75-8.095,14.303c-1.744,2.721-6.385,6.318-3.576,7.54
	c2.732,1.177,11.116-8.106,15.303-14.713c4.186-6.585,8.628-14.136,11.537-22.498c1.088-3.209,2.909-8.694,5.729-10.871
	c2.688-2.043,3.221-1.333,6.374-2.487c4.608-1.61,17.456-2.332,16.412-8.817c-0.999-6.44-22.608,8.339-20.454,0.244
	C913.01,308.349,917.485,303.597,918.185,297.289z"/>
<path fill="#E85658" d="M761.879,360.951c-7.707-4.553-15.014-9.806-13.747-23.531c1.865-19.321,11.459-34.179,34.046-54.034
	c12.037-10.549,33.047-27.572,46.661-34.157c14.214-6.929,33.957-14.936,44.239-17.245c7.096-1.61,12.682-2.476,15.258-9.55
	c2.543-7.051-4.952-10.316-16.545-6.563c-4.687,1.51-26.307,11.515-41.453,20.232c-29.549,16.968-42.075,30.071-54.778,41.786
	c-5.886,5.475-25.896,29.216-29.249,34.935c-7.418,12.615-16.523,39.943,6.818,49.892
	C765.699,368.069,770.807,366.214,761.879,360.951z"/>
<path fill="#E85658" d="M837.522,311.181c1.243,8.273-1.644,13.625-3.021,16.757c-1.644,3.642-4.964,7.14-3.887,9.994
	c0.688,1.876,5.108-2.065,6.574-4.153c5.729-8.25,7.873-11.682,10.526-19.411c1.954-5.752,4.497-10.171,4.397-19.521
	c-0.233-13.147-16.146-12.093-16.968,1.21C834.901,300.443,836.567,304.951,837.522,311.181z"/>
<path fill="#E85658" d="M817.156,340.408c-3.087-4.73-5.452-13.226-5.918-18.844c-0.367-3.853-0.012-7.374,0.844-11.104
	c0.6-2.509,0.999-5.186-0.611-7.396c-2.598-3.531-7.361-1.466-10.216,0.555c-9.461,6.774-6.196,17.212-1.732,26.351
	c2.909,5.941,7.052,9.816,12.326,13.703c3.909,2.898,12.771,7.496,14.347,6.096C827.729,348.303,820.044,344.794,817.156,340.408z"
	/>
<path fill="#E85658" d="M911.522,408.822c5.43,0.688,11.038-7.851,12.925-10.727c3.776-5.73,7.84-12.126,9.65-16.19
	c2.81-6.318,10.894-24.374,3.087-28.105c-9.717-4.608-11.094,15.835-11.948,20.154c-0.833,4.353-3.276,14.125-7.329,22.143
	C914.854,402.226,907.414,408.323,911.522,408.822z"/>
<path fill="#E85658" d="M848.271,570.758c22.143-13.958,43.374-37.111,55.389-53.49c14.347-19.521,27.417-44.617,36.212-62.185
	c6.995-14.036,14.047-32.625,3.064-37.566c-5.696-2.565-8.828,1.999-12.226,7.729c-3.231,5.519-4.608,20.932-7.596,31.947
	c-2.477,9.084-7.573,26.141-26.851,53.935c-12.349,17.801-29.737,41.72-62.407,60.131c-17.189,9.683-35.878,11.104-32.125,19.732
	C805.52,599.596,826.174,584.683,848.271,570.758z"/>
<path fill="#E85658" d="M1100.842,269.95c0.655,10.149,1.811,30.271,2.287,38.232c0.5,7.962-2.01,43.341-3.242,56.044
	c-1.255,12.715-7.051,47.882-10.549,62.74c-3.432,14.858-8.617,51.213-39.898,87.37c-10.039,11.56-23.83,12.881-22.298,22.608
	c1.888,12.171,13.592,10.261,19.566,7.451c10.171-4.786,16.057-13.559,22.175-24.207c6.119-10.649,16.823-34.146,21.543-49.692
	c5.696-18.778,9.895-36.268,12.115-52.169c2.188-15.857,7.506-52.458,8.062-65.727c0.844-19.666,1.044-38.322-0.488-52.269
	c-1.199-10.727-2.888-55.711-7.984-57.91C1096.756,240.079,1099.942,256.27,1100.842,269.95z"/>
<path fill="#E85658" d="M1111.146,261.644c1.654-2.954,5.975-5.93,8.962-8.128c2.887-2.132,12.814-8.895,19.654-9.306
	c5.574-0.311,10.128,1.621,12.37,8.928c2.133,6.996-0.61,12.104-2.897,16.234c-2.898,5.219-13.781,21.365-12.671,24.94
	c1.155,3.62,8.684-0.555,10.905-1.333c22.342-7.884,27.938-6.485,35.778-3.487c12.281,4.742,14.591,24.763,14.458,36.312
	c-0.145,11.571-3.376,26.784-7.974,36.778c-4.541,9.983-15.058,21.609-28.716,17.223c-5.519-1.743-8.173-7.162-10.549-11.493
	c-2.51-4.642-4.021-8.817-4.986-11.759c-0.955-2.965-3.798-8.973-10.005-6.94c-4.708,1.543-4.652,6.152-2.243,12.415
	c1.755,4.575,5.896,9.395,9.35,13.681c3.154,3.931,6.963,6.308,10.894,9.672c7.207,6.163,22.298,1.455,29.616-6.674
	c9.683-10.638,13.991-22.842,18.277-34.491c4.342-11.637,5.919-21.831,5.375-36.778c-0.289-8.239-1.921-15.002-5.353-20.232
	c-2.276-3.465-9.827-8.195-14.125-9.261c-12.659-3.065-32.313,5.252-40.397,8.839c-8.096,3.62,12.059-18.167,16.468-27.25
	c3.764-7.896,1.432-18.034-6.696-21.176c-15.979-6.229-37.044,5.874-48.926,15.113c-7.396,5.774-14.403,11.726-21.077,18.145
	c-3.131,2.987-12.037,9.794-6.851,16.812c1.766,2.443,7.084,0.245,9.183-1.421c2.977-2.31,4.709-5.696,6.353-8.794
	c1.832-3.509,2.82-6.852,5.752-9.206C1104.717,266.108,1107.094,269.017,1111.146,261.644z"/>
<path display="none" fill="#E85658" d="M718.511,478.267l0.512-0.416c1.024-0.774,2.007-1.646,2.989-2.463
	c1.384-1.135,2.768-2.324,4.206-3.403c0.969-0.747,1.827-1.661,2.685-2.56c0.857-0.928,1.771-1.868,2.795-2.657
	c0.803-0.622,1.633-1.093,2.408-1.591c1.162-0.72,2.324-1.426,3.348-2.49c0.596-0.596,1.19-1.19,1.717-1.827
	c1.342-1.411,2.712-2.878,4.22-4.206l0.332-0.264l0.152-0.068c5.354-2.629,8.759-5.937,13.117-10.129l0.222-0.193
	c2.242-2.188,4.926-3.64,7.555-5.023c2.242-1.218,4.373-2.366,6.282-3.93c2.851-2.421,5.923-4.649,8.925-6.794
	c2.229-1.605,4.525-3.307,6.739-5.037c1.937-1.522,3.93-3.155,5.839-4.719c2.878-2.338,5.867-4.788,8.911-7.084
	c2.297-1.674,4.068-3.833,5.95-6.102c1.604-1.896,3.266-3.902,5.299-5.604c1.536-1.37,2.395-3.03,3.418-4.94l0.332-0.636
	c1.107-2.048,2.629-3.625,4.109-5.092c0.36-0.36,0.692-0.692,1.024-1.065c2.505-2.629,4.358-6.794,6.033-10.46
	c0.512-1.107,0.927-2.173,1.425-3.141c2.27-4.677,4.179-9.658,5.756-14.806c3.902-12.896,4.649-23.08,2.27-31.106
	c-0.774-2.601-2.241-4.165-3.943-5.978c-1.121-1.148-2.256-2.352-3.279-3.93c-1.716-2.601-4.289-4.4-7.057-6.31
	c-0.996-0.664-2.076-1.439-3.1-2.214c-8.303-6.42-30.497-10.295-44.473-6.946s-10.986,3.708-16.466,5.978
	c-2.436,1.052-4.912,2.076-7.389,3.1c-4.179,1.702-8.482,3.459-12.634,5.313c-1.037,0.457-2.089,0.969-3.058,1.467
	c-1.577,0.775-6.462,2.74-7.237,2.961c-1.674,0.554-7.347,3.93-8.717,5.078c-1.314,1.148-12.993,9.133-13.879,10.309
	c-0.705,0.886-7.458,6.337-8.33,7.223c-2.38,2.394-4.939,4.705-7.43,6.946c-6.13,5.41-12.385,11.042-16.12,18.209
	c-1.827,3.528-1.356,8.745,2.282,10.931c0.637,0.387,1.26,0.595,1.868,0.609c2.325,0.18,4.165-2.27,5.286-4.317l0.941-1.743
	c4.953-9.022,9.616-17.518,17.088-25.101c1.702-1.771,20.299-16.937,25.031-19.372c3.459-1.799,6.919-3.764,10.239-5.66
	c7.666-4.331,15.595-8.814,24.188-11.748c5.369-1.771,11.762-2.657,17.365-3.459l1.094-0.138c2.297-0.304,4.773-0.387,7.582-0.194
	c2.38,0.166,5.064,0.526,8.108,1.08c7.846,1.411,18.818,4.843,26.623,12.924c3.403,3.487,5.659,7.555,6.503,11.734
	c0.484,2.477,3.681,13.823-1.729,32.102c-0.29,0.955-0.789,1.854-1.203,2.795c-1.578,3.805-3.211,7.693-5.148,11.18
	c-2.421,4.317-6.061,8.689-9.312,12.536l-0.484,0.567c-0.72,0.844-1.411,1.729-2.131,2.602c-2.657,3.266-5.41,6.614-8.69,9.202
	c-3.016,2.38-6.061,4.898-9.021,7.32c-6.683,5.465-13.588,11.111-20.907,16.051c-4.843,3.252-9.866,6.462-14.765,9.534l-2.836,1.771
	c-2.034,1.287-4.387,2.588-6.587,2.436c-2.089-0.139-3.569-1.495-4.428-3.999c-1.342-3.943-1.563-8.205-1.757-12.273
	c-0.069-0.886-0.084-1.743-0.139-2.574c-0.235-3.847-0.747-7.735-1.245-11.485c-0.264-2.297-0.554-4.649-0.816-6.946
	c-0.291-3.072-0.692-6.199-1.08-9.271c-1.12-9.381-2.338-19.095-1.784-28.518c0.166-2.809-0.181-5.632-0.416-8.316
	c-0.221-2.27-0.47-4.622-0.47-6.933c0.027-2.062,0.207-4.109,0.359-6.074c0.208-2.076,0.415-4.179,0.388-6.282
	c0-0.996-0.18-6.033-2.74-6.171c-0.387-0.055-0.857,0.042-1.369,0.208c-3.279,1.148-2.961,5.549-2.339,10.751
	c0.166,1.19,0.332,2.366,0.36,3.321c0.11,3.529,0.221,7.057,0.304,10.585c0.111,3.002,0.152,5.992,0.277,9.008
	c0.055,1.605,0.014,3.321-0.028,4.981c-0.055,3.736-0.152,7.666,0.72,10.987c1.218,4.76,1.48,9.312,1.743,14.114
	c0.098,1.549,0.166,3.155,0.305,4.788c0.484,6.31,1.218,12.647,1.938,18.597c0.139,1.052,0.263,2.104,0.415,3.1
	c0.691,5.175,1.342,10.046-0.056,15.678c-0.332,1.272-0.498,2.726-0.664,4.096c-0.471,3.916-0.941,7.928-4.815,10.447
	c-0.857,0.553-1.743,1.134-2.56,1.688c-3.972,2.643-8.053,5.396-12.771,6.836c-3.183,0.969-6.116,3.403-8.731,7.195
	c-1.342,1.992-2.228,5.783-1.342,8.51c0.47,1.342,1.286,2.227,2.519,2.615c0.47,0.152,0.954,0.248,1.438,0.276
	C710.665,484.507,715.397,480.757,718.511,478.267z M1174.884,388.769c0.359-1.578,0.54-3.21,0.789-4.788
	c0.553-3.999,1.134-8.136,3.764-11.637c1.106-1.453,2.158-3.058,3.127-4.607c1.826-2.74,3.722-5.618,6.116-8.025
	c5.202-5.369,13.809-8.33,22.305-7.777c2.864,0.18,5.535,0.748,7.942,1.716c0.443,0.139,0.858,0.333,1.384,0.526
	c2.104,0.886,4.483,1.813,6.67,1.979c1.162,0.042,2.117-0.125,2.961-0.54c1.023-0.525,1.439-1.66,1.633-2.491
	c0.401-2.02-0.097-4.677-1.176-6.033c-2.339-2.878-6.269-4.58-11.721-4.94c-6.642-0.429-13.837,1.231-18.431,2.92l-1.162,0.415
	c-4.207,1.522-8.925,3.251-11.734,6.268c-0.968,1.052-1.771,2.172-2.573,3.279c-1.771,2.463-3.611,5.009-7.195,6.351l-0.858,0.36
	l-0.47-0.789c-0.858-1.439-1.162-2.519-0.941-3.307c-0.083-2.255,0.72-4.483,1.578-6.614c0.636-1.743,1.272-3.362,1.369-4.815
	c0.125-2.421-1.508-3.044-2.92-3.141c-1.217-0.083-2.56,0.249-3.639,0.803c-4.497,2.394-4.47,5.258-4.137,10.53
	c0.414,5.604-0.526,11.277-1.385,16.757c-0.747,4.649-1.494,9.492-1.438,14.169v0.733c0,2.366,0,8.621,2.463,9.34
	c0.291,0.056,0.554,0.111,0.816,0.139C1171.272,395.743,1174.206,391.744,1174.884,388.769z M1251.375,350.053
	c1.245,0.028,2.27-1.577,2.324-3.044c0.042-0.858-0.193-1.882-1.535-1.965c-0.194-0.028-0.416-0.014-0.609,0
	c-2.075,0.249-2.297,1.771-2.241,2.421c0,1.231,0.761,2.491,1.992,2.56L1251.375,350.053z M1127.959,398.376
	c2.117-0.11,4.317-0.263,6.518-0.138c0.443,0.042,0.886,0.097,1.328,0.138c0.748,0.083,1.426,0.291,2.049,0.526
	c0.608,0.222,1.148,0.36,1.66,0.415c0.332,0.028,0.608-0.027,0.913-0.138c1.204-0.471,2.38-1.052,3.764-1.799
	c3.403-1.91,4.206-3.958,3.044-7.527c-0.789-2.38-1.743-3.708-2.795-3.764c-0.069,0-0.152,0-0.222,0
	c-1.909,0.138-3.901,0.609-6.296,1.522c-1.176,0.415-2.449,0.927-3.611,1.425c-2.988,1.259-6.116,2.546-9.465,3.017
	c-0.761,0.125-2.684,0.318-4.843,0.18c-5.895-0.387-6.96-3.113-7.001-4.705l-0.056-0.609l0.484-0.374
	c1.176-0.816,1.771-1.065,2.145-1.148c1.909-0.747,3.916-0.899,5.867-1.052c2.324-0.193,4.483-0.359,6.323-1.453
	c2.906-1.757,4.981-7.403,3.999-10.862c-1.508-5.203-7.153-7.873-11.789-8.178c-2.698-0.18-5.258,0.429-7.223,1.674
	c-1.094,0.748-1.979,2.325-2.851,3.833c-1.342,2.366-2.74,4.815-5.313,5.3c-0.581,0.11-1.245,0.152-1.868,0.11
	c-1.84-0.11-3.501-0.844-5.161-1.55c-1.536-0.664-2.989-1.273-4.414-1.37c-0.747-0.055-1.425,0.042-2.062,0.304
	c-1.744,0.623-3.127,2.283-3.543,4.138c-0.166,0.899-0.276,2.573,1.107,3.943c2.27,2.255,5.867,3.168,9.05,3.971
	c1.12,0.277,2.214,0.526,3.32,0.775c0.789,0.18,1.563,0.36,2.325,0.54c2.228,0.554,2.85,2.947,3.349,4.912
	c0.193,0.789,0.387,1.55,0.649,2.006c2.034,3.805,8.123,5.023,11.804,5.729c0.803,0.194,1.674,0.291,2.629,0.36
	C1123.822,398.64,1125.926,398.515,1127.959,398.376z M1125.524,374.134l0.014,0.304l-0.18,0.277
	c-1.245,1.923-4.649,2.781-7.154,2.615c-1.286-0.097-2.38-0.429-3.224-0.982l-0.346-0.249l-0.083-0.443
	c-0.305-1.467,0.11-2.989,1.218-4.29c1.383-1.605,3.639-2.587,5.59-2.435C1123.407,369.042,1125.565,370.481,1125.524,374.134z
	 M1037.3,414.581c2.519,0.028,2.823-3.943,2.878-8.067c0.042-0.858,0.069-1.591,0.139-2.172c0.388-4.096,1.909-7.887,3.376-11.54
	c0.65-1.591,1.301-3.238,1.854-4.885c1.121-3.307,2.477-5.604,4.829-8.178c0.359-0.387,0.761-0.968,1.148-1.605
	c0.913-1.439,1.965-3.044,3.64-3.584c0.539-0.152,1.093-0.221,1.604-0.193c4.524,0.318,6.421,7.693,7.348,11.277l0.124,0.499
	c0.401,1.605,0.9,3.265,1.37,4.815c1.162,3.875,2.38,7.887,2.671,12.024c0.124,1.84,0.955,6.158,5.659,6.518h0.083
	c1.605,0.11,2.988-0.388,3.93-1.398c1.107-1.176,1.66-3.016,1.411-5.022c-0.429-3.1-1.771-5.479-3.196-7.998
	c-0.899-1.55-1.826-3.238-2.587-5.12c-0.65-1.799-1.19-4.262-1.799-6.905c-1.578-7.25-3.515-16.286-9.658-17.172
	c-0.194-0.014-0.401-0.055-0.609-0.069c-4.096-0.277-7.942,3.002-11.208,6.047c-0.332,0.346-1.037,1.162-1.716,2.048
	c-2.864,3.542-5.022,6.061-6.946,5.922c-0.083,0-0.18,0-0.276-0.027l-0.941-0.222l0.056-0.968c0.097-1.246,0.222-2.187,0.388-2.795
	l0.027-0.055c0.498-3.57,1.384-9.547-0.346-11.651c-0.346-0.47-0.789-0.733-1.453-0.761c-0.747-0.042-1.66,0.152-2.739,0.595
	c-6.809,2.74-5.396,16.438-4.622,23.8c0.11,1.135,0.222,2.159,0.291,3.017c0.055,0.774,0.069,1.965,0.124,3.487
	c0.028,5.978,0.235,20.008,5.037,20.34H1037.3z M940.706,376.952c2.394-0.609,3.75-4.566,3.473-7.666
	c-0.152-1.273-0.72-4.29-3.459-4.483c-0.471-0.028-0.955,0.028-1.55,0.138c-2.546,0.65-3.21,3.515-3.017,6.005
	c0.291,3.238,1.993,5.978,3.819,6.061C940.222,377.035,940.457,377.021,940.706,376.952z M976.105,541.023
	c9.852,0.083,17.088-5.078,21.434-15.332c1.563-3.708,2.283-7.9,2.961-11.899c0.207-1.245,0.429-2.519,0.678-3.736
	c0.374-2.158,0.18-4.151-0.083-6.282c-0.083-0.761-0.166-1.494-0.193-2.27c-0.194-2.379,0.014-4.842,0.193-7.181
	c0.056-0.679,0.139-1.314,0.166-1.979c1.065-14.916,1.384-27.479,1.038-39.545l-0.014-0.665c-0.181-6.351-0.36-12.868-0.748-19.302
	c-0.276-5.162-0.719-10.17-2.85-14.543l-0.332-0.664l0.539-0.581c0.762-0.831,1.563-1.647,2.394-2.463
	c5.923-6.171,11.568-11.955,8.801-20.977c-2.241-7.182-9.824-9.146-15.815-9.52c-2.395-0.18-4.981-0.111-7.473,0.208
	c-7.873,0.955-17.863,6.49-20.894,14.031c-1.301,3.21-1.37,6.102-0.124,8.579c2.228,4.469,8.039,6.905,12.55,8.122
	c0.816,0.208,1.702,0.443,2.615,0.665c4.594,1.079,10.336,2.435,12.924,6.365c1.937,2.989,2.131,7.444,2.324,11.014
	c0.014,0.692,0.028,1.356,0.11,1.993c0.748,11.568,0.941,23.994,0.706,37.968c-0.152,6.863-0.401,13.921-0.803,21.476
	c-0.083,1.799-0.041,3.653,0.015,5.452c0.068,1.245,0.082,2.504,0.082,3.764c-0.027,1.771-0.332,3.432-0.691,5.037
	c-0.207,1.078-0.415,2.116-0.525,3.182c-0.969,8.496-3.902,19.428-12.302,23.136c-2.02,0.94-4.22,1.245-6.711,1.106
	c-2.712-0.193-5.368-0.885-7.915-1.604c-1.079-0.291-2.089-0.581-3.058-0.803c-0.637-0.11-1.286-0.276-1.923-0.401
	c-4.207-0.871-9.424-1.951-11.319-6.572c-1.784-4.358-2.241-10.586-1.314-18.998c0.526-5.162,1.951-10.17,3.308-15.041
	c0.234-0.857,0.498-1.744,0.747-2.629c1.245-4.428,3.251-7.915,5.341-11.609c0.775-1.37,1.605-2.823,2.38-4.304
	c2.09-3.957,4.981-8.994,8.994-12.439c0.941-0.83,2.075-1.633,3.238-2.463c2.726-1.896,5.493-3.888,6.476-6.655
	c0.415-1.218,0.318-2.353-0.277-3.404c-0.968-1.633-3.154-2.934-5.617-3.418c-0.471-0.097-0.955-0.152-1.384-0.18
	c-8.261-0.525-12.73,9.174-15.968,16.272c-0.235,0.498-0.484,0.996-0.72,1.494c-1.356,2.934-2.602,6.02-3.847,8.967
	c-1.107,2.739-2.27,5.604-3.542,8.357c-1.578,3.432-2.312,7.665-2.989,11.733c-0.305,1.675-0.581,3.391-0.955,5.01
	c-0.664,3.127-1.314,6.476-1.535,9.824c-0.083,1.494,0.055,2.988,0.276,4.553c0.166,1.093,0.305,2.282,0.359,3.473
	c0,0.871,0,1.757,0.042,2.656c0.069,4.608,0.097,9.326,2.034,13.173c1.965,3.985,7.029,5.037,11.443,5.964
	c0.622,0.097,1.176,0.235,1.702,0.36c1.799,0.4,3.569,0.913,5.313,1.411c3.128,0.913,6.352,1.84,9.575,2.062
	C975.357,540.995,975.718,541.023,976.105,541.023z M985.085,389.23l0.928-0.263c1.176-0.318,1.577-0.457,1.826-0.442
	c0.069,0,0.097,0.027,0.139,0.027c1.135-0.152,2.394-0.18,3.639-0.097c2.131,0.125,4.428,0.581,7.265,1.411
	c3.017,0.886,3.349,1.633,3.459,4.677c0.056,1.979-0.166,3.57-0.608,4.981c-1.245,3.653-3.183,5.839-6.504,7.348
	c-1.314,0.623-2.048,1.342-2.546,2.629c-0.124,0.346-0.221,0.65-0.305,0.982c-0.4,1.148-0.871,2.74-2.863,2.602
	c-0.318-0.014-0.65-0.083-1.038-0.18c-0.72-0.208-1.716-0.457-2.878-0.706c-5.259-1.162-13.229-2.906-13.339-8.496
	c-0.125-5.701,7.956-12.481,12.799-14.418L985.085,389.23z M1001.703,417.527c-0.166,0.055-0.359,0.221-0.65,0.484
	c0.152,0.263,0.305,0.401,0.402,0.471C1001.565,418.247,1001.703,417.845,1001.703,417.527z M900.454,440.049
	c0.72-1.079,1.218-2.269,1.771-3.459c0.762-1.854,1.605-3.75,3.211-5.424c1.301-1.328,1.688-2.74,2.172-4.552
	c0.125-0.595,0.291-1.204,0.512-1.868c0.54-1.688,1.329-3.072,2.117-4.4c1.426-2.436,2.561-4.345,1.813-7.486
	c-0.802-3.418-3.127-4.068-6.862-4.857c-1.481-0.305-3.017-0.609-4.456-1.245c-0.525-0.194-1.106-0.429-1.716-0.665
	c-3.93-1.55-8.786-3.459-9.865-7.984c-0.706-3.058-0.333-6.033,1.093-8.302c1.245-1.979,3.196-3.334,5.659-3.86
	c0.388-0.097,0.816-0.139,1.231-0.111c1.563,0.083,2.74,1.093,3.764,1.993c0.318,0.249,0.637,0.526,0.913,0.761
	c0.747,0.499,1.661,0.803,2.74,0.872c0.857,0.055,1.813-0.042,2.795-0.277c2.131-0.526,3.57-1.633,4.262-3.21
	c0.774-1.716,0.526-3.875-0.622-5.95c-1.592-2.878-3.501-3.528-6.463-3.722c-0.691-0.069-1.466-0.069-2.241-0.097
	c-0.388,0-0.733-0.028-1.135-0.028l-1.771-0.042l-0.388-0.042c-2.934-0.111-6.089-0.083-8.357,1.453
	c-2.007,1.342-3.445,4.206-4.595,6.517l-0.332,0.664c-3.791,7.527-3.722,17.476,5.12,22.72c2.159,1.301,4.594,1.923,7.14,2.546
	c1.578,0.374,3.211,0.789,4.719,1.342c2.09,0.761,3.307,1.785,3.777,3.196c0.637,2.02-0.595,4.262-2.048,6.448
	c-0.608,0.886-1.162,1.799-1.757,2.712c-1.993,3.085-3.999,6.268-7.085,8.828c-1.453,1.19-3.113,2.131-4.704,3.017
	c-2.173,1.218-4.276,2.38-5.771,4.124c-0.927,1.093-1.162,2.242-0.664,3.445c0.72,1.84,3.113,3.57,5.438,3.833
	c0.098,0,0.235,0.027,0.333,0C894.199,447.216,898.268,443.398,900.454,440.049z M944.539,428.205
	c1.909-4.331,0.857-9.382-0.181-14.28c-0.498-2.353-1.01-4.788-1.189-7.099c-0.166-2.504-0.125-5.078-0.097-7.583
	c0.027-3.003,0.097-6.047-0.235-9.008c-0.982-0.484-1.729-2.076-1.896-3.044c-0.166-0.027-0.332-0.042-0.526-0.083
	c-1.272-0.083-2.546,0.567-3.569,1.716c-1.135,1.384-1.633,3.183-1.246,4.815c0.858,3.681,1.121,7.541,1.439,11.263
	c0.139,2.076,0.332,4.234,0.581,6.31c0.11,0.65,0.166,1.495,0.235,2.463c0.429,4.69,1.231,14.446,5.341,14.708
	C943.598,428.398,944.041,428.371,944.539,428.205z M846.794,441.515l2.187-0.276c4.399-0.525,8.578-0.982,12.592-2.795
	c2.684-1.231,8.772-4.594,6.669-9.354c-0.969-2.117-3.349-4.013-6.144-4.179c-0.83-0.069-2.449,0.471-3.404,1.19
	c-1.162,0.886-1.328,2.629-2.214,3.695c-1.355,1.619-3.583,5.244-6.337,6.24c-1.688,0.581-4.511,0.484-6.877,0.332
	c-1.509-0.083-3.501-0.858-4.525-1.577c-1.604-1.121-1.466-4.898-1.162-6.697c0.388-2.297,2.574-4.566,5.037-5.258
	c2.089-0.582,4.179-2.408,6.171-4.151c0.72-0.65,1.411-1.273,2.117-1.827c3.362-2.684,7.154-6.268,6.379-10.322
	c-0.608-2.934-3.957-4.483-6.863-4.926c-0.498-0.069-0.969-0.139-1.438-0.166c-8.773-0.554-12.205,7.14-14.391,14.75
	c-1.854,6.254-6.739,6.559-11.07,6.794c-2.587,0.166-5.258,0.318-7.333,1.646c-1.384,0.914-1.633,2.131-1.577,2.961
	c0.11,1.661,1.342,3.321,2.988,4.068c1.162,0.554,2.49,0.886,3.736,0.955c0.927,0.042,1.854-0.014,2.629-0.222
	c0.608-0.152,1.231-0.401,1.868-0.706c1.231-0.512,2.643-1.135,4.165-1.024c0.221,0.028,0.47,0.055,0.705,0.111
	c0.097,0.027,0.18,0.027,0.277,0.055l0.29,0.083l0.222,0.194c0.789,0.844,1.135,1.245,1.273,1.605
	c0.83,1.245,1.425,2.587,2.006,3.86c0.152,0.346,0.291,0.678,0.457,1.01c1.259,2.809,3.085,4.11,6.047,4.303
	C842.934,441.986,844.829,441.738,846.794,441.515z M851.332,407.643l0.748,0.415l-0.222,0.803
	c-1.245,4.649-5.161,6.282-8.772,7.444l-1.26,0.415l-0.18-1.328c-0.222-1.923,0.664-4.248,2.353-6.005
	c1.55-1.633,3.486-2.532,5.271-2.408C850.018,407.02,850.696,407.241,851.332,407.643z M288.788,531.899
	c4.137,0.263,8.731,0.083,11.899-3.183c0.235-0.249,0.471-0.498,0.72-0.747c1.231-1.328,7.472-7.873,7.832-8.551
	c0.982-2.076,2.477-2.436,3.528-2.353c1.328,0.083,2.601,0.83,3.791,1.633c1.356,0.872,2.934,1.411,4.525,1.467
	c0.554,0.069,1.121,0.056,1.674,0c2.214-0.249,3.459-1.577,4.649-4.871c0.553-1.494,0.623-3.625-0.816-4.967
	c-1.065-0.969-2.588-1.495-4.165-2.034c-2.214-0.803-4.497-1.605-5.922-3.723c-0.913-1.397-0.567-3.556-0.277-5.438
	c0.097-0.637,0.194-1.218,0.222-1.619c0.083-1.896,0.138-4.109-0.222-6.296c-0.401-2.297-1.896-4.885-4.262-5.037
	c-0.858-0.055-1.743,0.194-2.629,0.775c-1.785,1.094-3.1,2.961-3.556,4.995c-0.097,0.374-0.152,0.774-0.235,1.204
	c-0.332,1.909-0.719,4.123-2.629,5.507l-0.457,0.305l-0.554-0.166c-9.119-2.934-14.736-6.946-17.67-12.661L284,485.656l0.208-0.471
	c2.712-6.185,6.171-12.023,9.562-17.656c1.798-3.058,3.68-6.198,5.382-9.326l0.775-1.41c3.985-7.252,8.44-15.43,10.793-23.385
	c1.868-6.517,3.791-16.079,2.228-24.754c-1.467-8.123-6.904-13.463-12.024-17.725c-5.188-4.234-10.876-8.551-18.154-9.908
	c-1.328-0.249-2.629-0.415-3.943-0.498c-7.209-0.47-14.252,1.495-20.327,5.701c-5.604,3.916-10.322,10.045-13.975,18.237
	c-1.951,4.483-3.238,8.911-3.75,13.09c-0.346,2.961-0.042,5.826,0.291,8.828c0.111,1.135,0.263,2.366,0.332,3.584
	c0.844,10.917,4.068,22.028,9.34,32.116c2.463,4.787,5.604,9.299,9.215,13.381c1.896,2.172,4.192,4.054,6.365,5.881
	c1.896,1.549,3.805,3.168,5.549,4.967c3.943,4.026,2.934,7.597,1.882,11.416c-0.36,1.328-0.775,2.739-0.955,4.234
	c-0.761,5.521-0.706,10.253,0.014,14.501c1.633,9.049,7.417,14.791,15.47,15.387L288.788,531.899z M279.974,498.331
	c0.042-0.083,0.139-0.194,0.277-0.36c1.01-1.272,1.578-1.867,2.352-1.826l0.554,0.027l0.318,0.416
	c0.014,0.082,0.069,0.166,0.125,0.249c2.906,1.411,5.452,3.403,7.776,5.147c0.692,0.525,1.854,1.203,3.072,1.923
	c4.22,2.463,9.977,5.825,9.049,10.198c-0.941,4.594-6.711,6.752-11.623,6.448c-1.204-0.083-2.269-0.318-3.141-0.665
	c-4.635-1.826-8.454-7.609-9.644-12.592c-0.388-0.608-0.416-1.771-0.416-2.477c-0.166-2.255,0.222-4.387,1.052-6.227
	L279.974,498.331z M302.722,407.449c8.358,18.279-2.491,37.858-9.935,50.962c-0.055,0.124-1.605,2.864-1.605,2.864v-0.014
	c-2.574,4.455-5.12,8.787-7.403,12.633c-1.273,2.215-2.518,4.262-3.639,6.213l-0.526,0.899l-0.941-0.47
	c-4.206-2.021-8.33-4.096-11.899-7.029c-2.353-1.951-4.013-4.346-5.618-6.67c-0.789-1.107-1.577-2.242-2.421-3.334
	c-4.276-5.355-5.825-10.835-7.458-16.619c-0.637-2.172-1.287-4.4-2.048-6.697c-2.463-7.14-2.629-15.027-0.443-22.845
	c2.297-7.97,7.652-12.938,12.896-17.767c4.428-4.096,11.153-6.185,18.486-5.687C290.407,394.525,299.263,399.866,302.722,407.449z
	 M379.296,526.683c1.938-1.868,2.546-6.809,2.463-9.687c-0.18-8.066-1.314-17.172-3.32-27.84c-1.924-9.755-0.679-18.61,0.747-26
	l0.442-2.103l1.467,1.549c3.432,3.57,24.242,29.777,25.433,12.619c0.027-1.037,0.027-1.937,0.097-2.643
	c0.401-2.754,1.038-5.604,1.702-8.344c0.554-2.352,1.121-4.746,1.494-7.14l0.318-1.854c0.623-3.902,1.259-7.941,2.104-11.872
	c0.803-3.653,1.868-7.278,2.919-10.751c0.249-0.982,0.554-1.896,0.816-2.837c0.166-0.581,0.347-1.411,0.484-2.297
	c0.415-2.491,0.955-5.563,2.795-7.084c0.222-0.18,0.471-0.36,0.816-0.526l0.679-0.332l0.581,0.526
	c1.287,1.245,25.778,49.122,26.401,50.865c0.138,0.359,0.248,0.691,0.4,1.052c1.246,3.321,3.113,6.227,5.134,9.313
	c1.19,1.841,2.436,3.749,3.542,5.742c2.325,4.372,4.788,8.855,8.718,11.886c1.909,1.48,4.912,3.307,8.095,3.543
	c1.536,0.097,2.975-0.236,4.289-0.914c1.398-0.761,2.395-2.033,2.754-3.5c0.359-1.453,0.069-2.961-0.775-4.234
	c-1.494-2.158-3.901-3.584-6.254-4.953c-0.857-0.526-1.771-1.053-2.573-1.605c-4.608-3.045-8.413-7.307-11.9-11.402
	c-7.417-8.8-12.37-19.469-17.172-30.552c-3.639-8.399-6.323-17.296-8.966-25.875c-0.886-2.933-1.771-5.922-2.727-8.855
	c-0.193-0.637-0.429-1.522-0.719-2.546c-1.107-4.345-3.487-13.408-7.417-13.671c-0.581-0.027-1.176,0.111-1.896,0.443
	c-1.26,1.163-1.287,2.74-1.343,4.58c-0.041,0.816-0.055,1.674-0.207,2.532c-0.457,2.685-1.343,5.313-2.173,7.818
	c-0.276,0.816-0.512,1.605-0.774,2.394c-1.107,3.487-2.104,7.126-3.072,10.626c-1.023,3.708-2.062,7.555-3.266,11.292
	c-2.477,7.652-4.04,13.823-5.133,20.077l-0.069,0.54c-0.941,5.354-1.965,11.43-5.701,15.857l-0.65,0.803l-0.83-0.608
	c-4.192-2.989-6.933-7.348-9.589-11.541c-1.135-1.84-2.297-3.68-3.542-5.368c-1.343-1.813-3.432-4.263-5.923-4.4
	c-0.11-0.042-0.207-0.042-0.305-0.042c-2.131,0.014-3.071,2.173-3.818,5.438c-1.91,8.606-2.076,17.739-2.048,24.699
	c0.055,4.248-0.139,8.537-0.305,12.675c-0.194,4.206-0.36,8.564-0.318,12.826c0.056,4.263,0.263,8.87,0.72,13.657
	c0.291,3.155,0.844,6.269,2.892,7.652c1.011,0.678,1.91,0.996,2.644,1.052C378.161,527.416,378.771,527.195,379.296,526.683z
	 M593.037,420.428c0.954-1.48,1.106-3.487,0.332-5.258c-0.72-1.66-2.146-2.67-3.875-2.781c-0.207-0.014-0.415-0.014-0.623-0.014
	c-1.12,0.083-2.103,0.553-2.822,1.522c-0.982,1.273-1.397,3.224-1.01,4.995c0.429,2.089,2.85,2.781,4.953,2.947
	C590.698,421.092,592.151,420.622,593.037,420.428z M645.521,466.505c3.266-0.678,7.666-2.186,10.212-5.493
	c1.355-1.716,1.909-4.248,1.384-6.033c-0.332-1.148-1.079-1.882-2.2-2.297c-0.512-0.18-0.982-0.29-1.453-0.304
	c-2.297-0.152-3.916,1.549-5.756,3.569c-0.526,0.498-1.024,1.024-1.522,1.522c-2.104,1.992-4.594,2.975-7.292,2.781
	c-1.619-0.084-3.252-0.596-4.857-1.509c-2.49-1.342-4.067-3.694-4.096-5.937c-0.027-1.799,0.955-3.375,2.768-4.414
	c1.356-0.788,2.685-1.396,3.985-2.006c2.158-0.996,4.206-1.938,6.074-3.542c2.214-1.827,7.099-6.559,4.774-10.544
	c-1.688-2.919-5.479-5.313-8.814-5.521c-0.222,0-0.429-0.014-0.678,0c-3.985,0.097-8.801,3.584-12.066,6.227
	c-1.467,1.176-3.113,2.629-4.068,4.331c-0.484,0.886-0.719,1.91-0.927,3.044c-0.249,1.329-0.54,2.726-1.37,4.013l-0.263,0.415
	l-0.484,0.083c-1.314,0.221-2.269,0.318-2.822,0.276c-0.581-0.056-0.913-0.249-1.135-0.498c-1.467-0.47-2.644-1.301-3.847-2.131
	c-0.886-0.636-1.799-1.301-2.92-1.826c-0.678-0.291-1.37-0.457-2.062-0.499c-1.813-0.138-4.096,0.637-4.566,3.183
	c-0.415,2.075-0.193,3.68,0.595,4.814c1.675,2.339,5.812,2.893,9.839,3.459c3.307,0.471,6.393,0.9,8.523,2.27
	c2.214,1.439,3.598,3.418,4.939,5.355c1.522,2.172,2.92,4.221,5.493,5.41c2.713,1.218,5.701,1.992,8.635,2.158
	C641.591,467.031,643.611,466.865,645.521,466.505z M640.566,431.221l0.692-0.042l0.388,0.623c0.263,0.526,0.622,1.01,1.023,1.494
	l0.623,0.831l-0.208,0.581c-1.937,5.396-8.647,9.506-15.276,9.285l-1.176-0.042l0.125-1.162c0.332-5.355,4.206-9.423,10.377-10.986
	C637.688,431.47,638.685,431.387,640.566,431.221z M593.341,475.056c2.615-4.648-0.235-13.394-1.896-18.639l-0.222-0.594
	c-1.55-4.871-0.65-9.687,0.222-14.363c0.207-0.969,0.388-1.938,0.567-2.934c0.069-0.567-0.097-1.093-0.484-1.633
	c-0.83-0.996-2.546-1.771-4.221-1.882c-0.456-0.027-0.899-0.027-1.286,0.056c-0.415,0.359-0.996,0.858-1.412,1.121
	c-1.66,2.587-1.328,6.932-1.079,10.17l0.083,0.982c0.139,1.701,0.222,3.404,0.305,5.105c0.235,3.875,0.442,7.901,0.996,11.762
	c0.526,3.875,1.328,8.219,3.833,10.627c0.484,0.457,1.494,0.941,2.643,1.023C592.054,475.886,592.968,475.791,593.341,475.056z
	 M561.591,478.433c0.539-1.522,0.664-3.211,0.802-5.01c0.111-2.047,5.259-25.543,6.282-27.494c1.716-3.224,1.702-5.631-0.138-8.315
	c-1.329-1.951-3.404-3.017-5.313-2.671c-0.679,0.152-1.411,0.484-1.993,1.01c-1.577,1.301-1.577,4.151-1.577,6.669
	c-0.027,0.775,0,1.521-0.042,2.187c-0.207,2.353,0.457,5.396,0.318,7.721c-0.166,2.698-0.318,5.812-0.539,8.579
	c-0.056,0.581-0.014,1.273,0,2.048c0.014,2.685,0.318,5.425-1.938,7.14l-1.646,0.222l-0.664-0.554
	c-0.318-0.234-0.554-0.471-0.747-0.637c-2.657-2.629-3.57-6.393-4.4-9.727c-0.139-0.554-0.249-1.08-0.388-1.605
	c-0.332-1.176-0.774-2.311-1.287-3.515c-0.498-1.148-0.996-2.366-1.369-3.625c-0.222-0.816-0.291-1.633-0.374-2.422
	c-0.166-1.272-0.304-2.435-0.954-3.417c-1.287-2.063-3.764-3.128-6.282-2.615c-0.803,0.138-1.563,0.442-2.242,0.912
	c-2.504,1.633-2.698,6.061-2.698,7.403c0,5.742,3.806,9.45,7.846,13.353c1.882,1.826,3.819,3.709,5.383,5.84l0.346,0.442
	c6.67,9.118,9.99,10.654,11.623,10.378C560.401,480.564,561.079,479.816,561.591,478.433z M509.869,489.112
	c6.311-0.43,12.62-5.3,14.336-11.028c1.646-5.368,0.719-13.948-1.011-19.289c-1.591-4.884-8.993-8.44-13.768-9.382
	c-0.429-0.096-0.886-0.193-1.411-0.29c-1.314-0.305-2.795-0.65-4.123-0.733c-0.872-0.055-1.578,0-2.117,0.166
	c-1.038,0.332-1.785,1.148-2.615,2.02c-0.886,0.969-1.91,2.076-3.432,2.63l-0.526,0.18l-0.456-0.332
	c-1.896-1.272-3.695-1.993-5.383-2.089c-2.366-0.166-4.497,0.871-6.31,3.127c-3.985,4.787-5.259,13.532-3.875,18.68
	c1.37,5.355,5.037,11.941,11.181,14.335c2.878,1.135,6.42,1.854,10.378,2.104C503.532,489.375,506.479,489.361,509.869,489.112z
	 M488.92,462.614c0.803-0.72,1.716-1.135,2.505-1.536c1.453-0.733,2.477-1.204,2.851-3.085l0.207-1.107l1.107,0.221
	c2.021,0.416,3.017,1.951,3.874,3.321c0.554,0.845,1.065,1.661,1.827,2.089c1.965,1.205,4.289,1.509,6.752,1.813
	c1.384,0.193,2.781,0.388,4.124,0.72c3.459,0.885,5.202,7.016,5.216,10.211c-0.014,3.321-1.992,5.95-5.549,7.307
	c-2.684,1.065-6.835,2.241-11.401,1.938c-3.459-0.223-6.448-1.26-8.938-3.072c-3.059-2.214-5.147-5.535-5.701-9.105
	c-0.401-2.711,0.097-5.34,1.494-7.609C487.537,464.094,488.201,463.029,488.92,462.614z M42.55,584.13
	c0.226-2.213-0.044-4.384-0.285-6.697c-0.278-2.434-0.566-4.965-0.245-7.534c0.606-5.385,1.313-11.695,1.7-18.006
	c0.305-4.859,1.139-9.042,2.536-12.496c0.53-1.267,1.371-1.505,1.841-1.519c1.691-0.035,3.101,1.982,5.29,5.961
	c0.25,0.479,0.513,0.956,0.594,1.088l0.556,0.813c3.086,4.555,6.257,9.281,8.83,14.323c0.831,1.595,1.489,3.428,2.153,5.176
	c1.04,2.883,2.125,5.816,3.891,7.942c0.865,1.009,2.106,1.555,3.452,1.536c1.538-0.049,2.892-0.776,3.673-2.023
	c1.522-2.479,1.584-5.956,1.655-9.003c0.002-0.459,0.047-0.907,0.023-1.35c0.858-25.864,14.161-50.91,27.027-71.988
	c8.075-13.167,15.734-22.604,24.04-29.706c3.272-2.809,6.062-4.772,8.797-6.229c0.956-0.514,1.921-0.916,2.863-1.273
	c1.224-0.467,2.351-0.926,3.365-1.567c1.379-0.925,2.335-2.563,2.593-4.404c0.183-1.752-0.322-3.416-1.33-4.482
	c-1.319-1.441-2.747-2.069-4.343-2.057c-4.727,0.101-10.159,6.055-14.135,10.369c-1.397,1.509-2.592,2.806-3.625,3.714l-0.643,0.597
	c-2.102,1.876-4.255,3.81-5.996,6.016c-0.811,1.07-1.401,2.273-2.066,3.58c-0.519,1.073-1.064,2.161-1.752,3.206
	c-0.663,1.016-1.329,1.989-1.98,2.976c-2.765,4.183-5.646,8.473-8.139,12.908c-1.144,2.043-2.276,4.057-3.407,6.085
	c-5.166,9.055-10.469,18.442-14.863,28.056c-3.127,6.755-5.546,13.018-7.408,19.149c-0.771,2.65-1.447,5.458-2.107,8.112
	c-0.815,3.431-1.648,6.988-2.825,10.423l-0.599,1.76l-1.321-1.317c-4.906-4.883-7.7-11.53-10.476-17.958
	c-0.99-2.305-1.93-4.515-2.957-6.606c-0.3-0.586-0.653-1.457-1.106-2.53c-1.754-4.252-5.373-13.051-9.116-12.979
	c-0.554,0.02-1.08,0.204-1.644,0.586c-2.071,1.428-2.393,4.956-2.677,7.786c-0.082,0.507-0.098,0.966-0.142,1.428
	c-0.612,5.149-1.333,10.337-2.037,14.744c-0.184,1.419-0.396,2.825-0.633,4.263c-0.564,3.771-1.181,7.74-1.64,11.612
	c-0.069,0.646-0.134,1.346-0.16,2.015c-0.367,3.643-0.75,7.425-2.627,10.78l-0.484,0.834l-0.917-0.324
	c-2.351-0.854-3.879-2.791-5.18-4.512c-0.202-0.248-0.403-0.494-0.578-0.743c-1.529-1.951-3.357-3.821-5.094-5.617
	c-0.456-0.46-0.91-0.894-1.34-1.37c-0.72-0.785-1.469-1.582-2.207-2.406c-2.695-2.908-5.456-5.948-8.761-7.886
	c-1.538-0.923-3.64-1.464-5.511-1.415c-1.856,0.049-4.275,0.674-4.933,3.355c-0.875,3.395,2.556,7.433,4.166,9.35
	c6.034,7.175,13.763,12.76,21.254,18.142l1.124,0.793c0.389,0.328,1.032,0.855,1.824,1.51c2.98,2.354,9.137,7.407,12.322,7.3
	C41.305,586.446,42.329,586.4,42.55,584.13z M183.765,549.998c0.429,0.028,0.899-0.055,1.398-0.29
	c0.747-0.305,1.107-1.148,1.494-2.09c0.595-1.286,1.329-3.03,3.57-3.099c2.297-0.125,4.829-0.775,7.306-1.924
	c4.068-1.951,7.084-5.978,9.962-9.88c0.416-0.554,0.803-1.079,1.218-1.591c5.784-7.666,7.708-19.206-0.138-25.599
	c-1.882-1.522-4.013-2.38-6.407-2.519c-2.67-0.166-5.493,0.525-8.122,2.021c-1.979,1.162-3.293,2.988-4.649,4.939
	c-1.356,1.91-2.74,3.875-4.912,5.189l-1.702,0.968l0.014-1.95c0.027-1.121-0.014-2.283-0.069-3.515
	c-0.166-4.138-0.36-8.76,1.578-12.605c1.397-2.768,1.951-5.521,2.518-8.441c0.305-1.438,0.609-2.919,1.01-4.428
	c0.429-1.729,1.314-3.21,2.159-4.621c0.678-1.162,1.314-2.256,1.729-3.459c0.166-0.554,0.374-1.08,0.553-1.605
	c0.637-1.992,1.329-4.041,2.408-6.061c0.235-0.401,0.471-0.83,0.72-1.273c2.006-3.556,4.525-7.97,2.408-11.207
	c-0.914-1.426-2.532-1.717-3.376-1.799c-1.66-0.111-3.376,0.442-4.469,1.452c-1.204,1.106-1.813,3.03-2.394,4.94
	c-0.25,0.664-0.429,1.301-0.665,1.881c-0.54,1.467-1.328,2.74-2.076,3.958c-0.802,1.286-1.522,2.491-1.979,3.819
	c-1.605,4.648-2.228,9.879-2.809,14.93c-0.111,1.148-0.277,2.311-0.416,3.473c-0.277,2.491-0.858,4.898-1.397,7.307
	c-0.595,2.602-1.204,5.285-1.48,7.998c-0.982,9.935-0.83,19.51,0.47,28.462l0.069,0.65
	C179.102,547.037,181.814,549.86,183.765,549.998L183.765,549.998z M197.463,508.888c1.314-0.623,2.864-0.872,4.58-0.761
	c1.107,0.069,9.824,4.206,1.938,16.134c-3.197,4.815-10.35,11.042-14.833,11.582c0,0,6.199-1.26-1.467,0.18
	c-7.638,1.411-0.899-19.926,7.942-26.014C196.066,509.511,196.896,509.096,197.463,508.888z M103.769,553.311l0.083-0.027
	c3.334-1.259,5.922-1.854,8.676-1.84c1.342-0.042,2.67-0.332,4.054-0.65c1.411-0.332,2.85-0.664,4.373-0.692
	c0.678-0.014,1.411-0.014,2.158,0.056c2.491,0.166,5.009,0.664,7.444,1.148c1.923,0.401,3.888,0.789,5.798,1.01
	c0.291,0.028,0.554,0.056,0.789,0.056c3.501,0.222,7.084-0.525,10.544-1.287l1.093-0.235c3.639-0.788,8.191-1.743,10.862-4.497
	c1.024-1.093,1.495-2.49,1.287-3.93c-0.208-1.286-0.941-2.297-2.117-2.892c-0.636-0.359-1.314-0.554-2.103-0.608
	c-2.519-0.166-5.452,1.314-8.04,2.587c-1.273,0.65-2.477,1.231-3.583,1.633c-0.858,0.318-1.661,0.664-2.463,1.011
	c-2.657,1.12-5.479,2.269-8.44,2.103c-0.553-0.027-1.052-0.11-1.55-0.222c-0.581-0.11-1.301-0.359-2.186-0.761l-1.024-0.456
	l0.47-1.011c1.176-2.587,3.238-4.594,5.286-6.586c1.661-1.619,3.376-3.308,4.483-5.244c1.979-3.432,1.896-8.164-2.103-10.558
	c-1.578-0.928-3.307-1.453-5.092-1.564c-6.144-0.415-11.983,3.902-15.11,7.722c-2.671,3.237-3.681,6.254-3.183,9.188
	c0.028,0.415,0.138,0.816,0.194,1.177c0.443,1.965,1.038,4.621-2.325,5.756c-1.993,0.691-4.124,0.65-5.742,0.525
	c-0.567-0.027-1.176-0.068-1.758-0.152l-0.691-0.055c-0.72-0.083-1.412-0.139-2.145-0.208c-3.044-0.166-6.074,0-8.053,2.422
	c-1.702,2.062-2.67,5.175-1.342,7.167c0.733,1.121,1.854,1.716,3.431,1.827C98.358,555.387,101.61,554.142,103.769,553.311z
	 M120.677,532.861l0.263-1.412l0.18,0.028c1.536-3.598,6.448-6.822,10.405-6.587c0.955,0.069,1.799,0.332,2.574,0.789l0.387,0.193
	l0.139,0.429c1.273,4.207-3.376,8.22-6.13,10.627l-0.595,0.471c-1.577,1.411-2.933,1.633-3.791,1.577
	c-0.997-0.083-1.882-0.525-2.532-1.342c-0.858-1.094-1.19-2.643-0.955-4.387C120.649,533.109,120.649,532.999,120.677,532.861z"/>
</svg>
