<?xml version="1.0" encoding="utf-8"?>
<!-- Generator: Adobe Illustrator 15.0.0, SVG Export Plug-In  -->
<!DOCTYPE svg PUBLIC "-//W3C//DTD SVG 1.1//EN" "http://www.w3.org/Graphics/SVG/1.1/DTD/svg11.dtd" [
	<!ENTITY ns_flows "http://ns.adobe.com/Flows/1.0/">
]>
<svg version="1.1"
	 xmlns="http://www.w3.org/2000/svg" xmlns:xlink="http://www.w3.org/1999/xlink" xmlns:a="http://ns.adobe.com/AdobeSVGViewerExtensions/3.0/"
	 x="0px" y="0px" width="1254px" height="450px" viewBox="-12.12 214.298 1254 450"
	 enable-background="new -12.12 214.298 1254 450" xml:space="preserve">
<defs>
</defs>
<path display="none" fill="#E85658" d="M494.122,1.87c-2.626-3.897-4.953-1.033-4.975,2.499c0,3.809,1.216,9.472,1.588,11.238
	c1.41,7.04,2.942,14.014,4.314,21.032c2.876,14.491,4.614,29.027,6.501,43.641c1.965,15.18,4.719,51.479,4.531,72.423
	c-0.122,18.478-1.699,39.188-1.999,43.773c-0.583,9.628-2.626,20.344-4.242,31.06c-0.95,6.308-2.471,12.892-5.274,19.988
	c-3.915,9.705-9.85,23.708-10.899,30.182c-1.527,9.006,5.869,14.225,13.609,11.826c5.252-1.621,8.067-8.462,9.488-13.248
	c4.636-15.579,6.469-32.436,8.162-48.493c1.149-10.615,1.943-21.254,2.282-31.881c0.3-10.094,0.478-40.098-0.822-58.887
	c-1.061-15.391-2.843-27.738-3.803-37.222C511.667,90.649,502.272,13.84,494.122,1.87z"/>
<path display="none" fill="#E85658" d="M553.088,402.67c-16.634,1.876-31.687,8.195-49.432,13.792
	c0.478-12.07-1.649-26.706-13.103-33.357c-12.332-7.129-28.916-2.421-41.169,2.376c-8.345,3.298-13.803,5.952-21.81,12.348
	c-2.759,2.21-8.189,7.285-10.949,9.505c-1.982,1.644-4.947,1.666-4.742-1.91c0.289-5.408-8.262-7.351-10.166-0.466
	c-1.866,6.762-0.622,14.969-0.694,21.942c-0.061,5.052-0.133,10.149,0.395,15.191c0.361,3.62,3.542,14.725,2.182,16.9
	c-1.399,2.177-8.118,1.977-11.416,3.554c-4.048,2.021-8.495,8.684-5.241,13.836c3.598,5.708,12.931-7.528,17.439-5.974
	c4.547,1.609,3.143,31.825,12.404,37.066c5.885,3.364,13.847-0.777,11.943-7.995c-1.927-7.284-7.313-13.736-9.739-20.999
	c-1.133-3.408-4.159-10.716-1.688-13.625c2.332-2.731,5.575-4.353,8.728-5.907c7.14-3.554,18.45-12.126,20.421-10.527
	c2.004,1.633,1.771,11.382,2.038,17.356c0.122,2.554,2.82,13.181-0.239,15.357c-4.531,3.31-15.713,6.085-14.142,9.738
	c2.276,5.342,10.827-2.543,15.069-4.164c5.152-1.998,9.933-3.021,15.402-3.809c10.232-1.41,20.121-1.177,30.443-0.622
	c3.342,0.189,7.74,0.633,10.766-1.188c2.093-1.244,2.321-4.575,0.117-5.896c-4.442-2.688-17.04-1.344-21.432-0.767
	c5.48-8.073,10.077-18.967,13.025-27.328c1.36-3.942,2.459-7.906,2.865-12.004c0.327-3.021,2.448-7.707,4.819-9.949
	c4.358-4.131,10.815-6.685,16.435-7.818c8.206-1.666,15.08-3.154,23.002-3.687c7.912-0.511,16.429,0.688,18.628-3.42
	C565.636,405.702,560.289,401.826,553.088,402.67z M480.87,470.307c-1.688,4.253-1.843,5.83-6.18,6.652
	c-2.354,0.443-7.751,0.821-10.127,1.088c-6.113,0.666-6.38-1.466-6.935-8.062c-0.478-5.83-1.177-11.549-1.815-17.346
	c-0.472-4.486-0.594-8.694,4.248-10.249c9.211-3.043,14.835-7.041,20.038-9.472c0.894-0.422,8.445-3.82,9.96-2.788
	C493.874,432.763,486,457.471,480.87,470.307z M491.553,420.038c-11.104,4.753-32.475,17.479-36.089,15.036
	c-2.11-1.399-0.678-7.962-0.578-12.326c0.105-3.243-0.822-8.484-6.007-7.595c-2.365,0.389-3.925,3.809-3.398,8.195
	c1.033,7.873,0.544,15.18-3.215,17.423c-2.376,1.433-17.34,8.829-29.205,12.848c-0.95-6.219-1.816-11.849-1.683-16.19
	c0.194-6.629,1.838-11.526,5.103-18.444c2.543-5.397,7.995-10.05,10.793-11.893c6.985-4.575,12.365-7.484,20.132-10.594
	c7.801-3.087,17.412-3.109,25.529-1.843c-5.191-0.811,10.466,1.599,0,0C483.402,396.252,493.274,404.78,491.553,420.038z"/>
<path display="none" fill="#E85658" d="M165.721,348.658c2.915-1.421,8.211-4.73,12.37-8.295
	c5.73-4.919,22.176-25.207,28.899-36.544c1.899-3.209,8.117-13.781,11.171-21.188c2.798-6.829,3.359-13.98,7.251-17.878
	c3.481-3.521,9.572-4.886,12.587-3.021c5.802,3.62,2.082,14.058-1.943,20.576c-4.419,7.118-10.077,13.204-15.446,19.622
	c-6.202,7.362-13.62,15.702-21.343,24.33c-6.657,6.785-12.776,12.87-13.109,13.403l36.7-17.556
	c8.456-3.864,22.12-9.139,30.465-12.259c22.303-8.272,36.2-14.213,56.011-21.631c11.981-4.497,29.649-9.728,56.21-17.678
	c4.153-1.232,14.292-4.142,18.544-4.63c5.091-0.622,8.095-1.244,13.187-1.566c7.584-0.5,15.257,8.006,11.166,14.125
	c-4.075,6.096-17.778,1.921-25.207,2.543c-10.055,0.899-25.013,2.365-34.957,4.264c-18.716,3.531-33.607,8.261-51.541,14.569
	c-37.161,13.081-73.489,24.896-108.34,43.596c-16.846,9.039-33.019,19.144-49.587,28.594c-15.563,8.917-28.411,20.243-42.136,31.659
	c-5.997,4.997-11.876,10.194-18.184,14.791c-4.048,2.976-10.721,6.84-15.907,4.708c-6.457-2.643-5.369-10.727-2.482-15.058
	c4.564-6.962,11.898-9.461,18.944-12.748c14.28-6.651,27.717-14.513,41.664-21.831c7.684-4.02,15.269-8.217,22.719-12.648
	C147.443,358.519,162.878,350.091,165.721,348.658z"/>
<path display="none" fill="#E85658" d="M156.954,348.703c0.133-1.288-2.893-1.843-5.419-2.154c-1.227-0.144-4.059-0.044-7.967-1.144
	c-3.931-1.122-11.26-3.787-15.624-9.361c-4.009-5.097-6.357-10.183-9.078-16.501c-1.999-4.675-8.583-8.861-13.608-6.641
	c-4.708,2.043-6.657,7.229-4.947,12.259c1.96,5.886,8.067,11.038,12.375,14.458c5.313,4.198,12.021,5.575,18.872,7.573
	c6.058,1.744,12.67,2.843,14.375,3.032C149.63,350.657,156.776,350.479,156.954,348.703z"/>
<path display="none" fill="#E85658" d="M236.445,376.164c-2.626-3.897-4.953-1.033-4.975,2.499c0,3.809,1.216,9.472,1.588,11.238
	c1.41,7.04,2.942,14.014,4.314,21.032c2.876,14.491,4.614,29.027,6.501,43.641c1.965,15.18,4.719,51.479,4.531,72.423
	c-0.122,18.478-1.699,39.188-1.999,43.773c-0.583,9.628-2.626,20.344-4.242,31.06c-0.95,6.308-2.471,12.892-5.274,19.988
	c-3.915,9.705-9.85,23.708-10.899,30.182c-1.527,9.006,5.869,14.225,13.609,11.826c5.252-1.621,8.067-8.462,9.488-13.248
	c4.636-15.579,6.469-32.436,8.162-48.493c1.149-10.615,1.943-21.254,2.282-31.881c0.3-10.094,0.478-40.098-0.822-58.887
	c-1.061-15.391-2.843-27.738-3.803-37.222C253.99,464.944,244.596,388.135,236.445,376.164z"/>
<path display="none" fill="#E85658" d="M146.094,469.408c-0.217,5.309,0.505,10.36,0.144,13.07
	c-0.372,2.743-21.903,9.717-21.47,1.844c0.411-7.862,8.739-9.605,11.537-10.539c6.985-2.298,7.573-9.683-1.638-8.35
	c-6.613,0.921-8.711,1.076-10.177-0.812c-3.986-5.097,0.178-19.199-6.046-20.831c-6.585-1.678-5.08,11.227-4.792,14.413
	c0.744,9.028,0.988,18.145,1.166,27.229c0.361,19.41-0.55,38.565-3.409,57.754c-1.177,7.795-2.371,16.179,4.437,21.765
	c4.597,3.731,12.004,4.73,14.641-1.688c4.419-10.972-2.349-26.385-3.298-37.667c-0.566-6.729-3.253-19.011,1.033-24.984
	c4.325-5.93,19.844-11.083,20.122-9.816c0.233,1.243,0.494,22.598-0.361,34.046c-0.483,6.685-4.348,14.191,0.927,19.544
	c2.771,2.776,6.984,2.709,7.601-0.289c0.639-3.265,0.683-6.951,0.339-11.46c-1.11-14.901-1.01-29.671-2.493-44.572
	c-1.305-13.192-0.661-26.474-0.927-39.71c-0.216-9.927,3.765-22.253-1.649-31.026c-5.952-9.572-16.945-7.307-24.208-0.633
	c-4.181,3.875-15.302,19.177-7.307,21.554c7.273,2.166,5.574-22.275,19.039-9.561c5.019,4.742,3.503,13.392,5.052,19.999
	C144.95,451.208,145.788,465.433,146.094,469.408"/>
<path display="none" fill="#E85658" d="M185.87,395.73c-1.793,5.519-0.15,12.515,0.838,17.956c1.222,7.04,2.143,14.191,3.581,21.209
	c1.021,5.086,2.343,10.149,6.852,13.203c3.215,2.154,8.967,3.165,10.122-1.843c1.205-5.119-1.116-11.093-2.226-15.902
	c-2.055-8.695-4.131-15.046-5.402-18.922c-1.377-4.253-3.209-9.494-6.857-15.679C190.589,392.01,186.997,392.299,185.87,395.73z"/>
<path display="none" fill="#E85658" d="M553.088,402.67c-16.634,1.876-31.687,8.195-49.432,13.792
	c0.478-12.07-1.649-26.706-13.103-33.357c-12.332-7.129-28.916-2.421-41.169,2.376c-8.345,3.298-13.803,5.952-21.81,12.348
	c-2.759,2.21-8.189,7.285-10.949,9.505c-1.982,1.644-4.947,1.666-4.742-1.91c0.289-5.408-8.262-7.351-10.166-0.466
	c-1.866,6.762-0.622,14.969-0.694,21.942c-0.061,5.052-0.133,10.149,0.395,15.191c0.361,3.62,3.542,14.725,2.182,16.9
	c-1.399,2.177-8.118,1.977-11.416,3.554c-4.048,2.021-8.495,8.684-5.241,13.836c3.598,5.708,12.931-7.528,17.439-5.974
	c4.547,1.609,3.143,31.825,12.404,37.066c5.885,3.364,13.847-0.777,11.943-7.995c-1.927-7.284-7.313-13.736-9.739-20.999
	c-1.133-3.408-4.159-10.716-1.688-13.625c2.332-2.731,5.575-4.353,8.728-5.907c7.14-3.554,18.45-12.126,20.421-10.527
	c2.004,1.633,1.771,11.382,2.038,17.356c0.122,2.554,2.82,13.181-0.239,15.357c-4.531,3.31-15.713,6.085-14.142,9.738
	c2.276,5.342,10.827-2.543,15.069-4.164c5.152-1.998,9.933-3.021,15.402-3.809c10.232-1.41,20.121-1.177,30.443-0.622
	c3.342,0.189,7.74,0.633,10.766-1.188c2.093-1.244,2.321-4.575,0.117-5.896c-4.442-2.688-17.04-1.344-21.432-0.767
	c5.48-8.073,10.077-18.967,13.025-27.328c1.36-3.942,2.459-7.906,2.865-12.004c0.327-3.021,2.448-7.707,4.819-9.949
	c4.358-4.131,10.815-6.685,16.435-7.818c8.206-1.666,15.08-3.154,23.002-3.687c7.912-0.511,16.429,0.688,18.628-3.42
	C565.636,405.702,560.289,401.826,553.088,402.67z M480.87,470.307c-1.688,4.253-1.843,5.83-6.18,6.652
	c-2.354,0.443-7.751,0.821-10.127,1.088c-6.113,0.666-6.38-1.466-6.935-8.062c-0.478-5.83-1.177-11.549-1.815-17.346
	c-0.472-4.486-0.594-8.694,4.248-10.249c9.211-3.043,14.835-7.041,20.038-9.472c0.894-0.422,8.445-3.82,9.96-2.788
	C493.874,432.763,486,457.471,480.87,470.307z M491.553,420.038c-11.104,4.753-32.475,17.479-36.089,15.036
	c-2.11-1.399-0.678-7.962-0.578-12.326c0.105-3.243-0.822-8.484-6.007-7.595c-2.365,0.389-3.925,3.809-3.398,8.195
	c1.033,7.873,0.544,15.18-3.215,17.423c-2.376,1.433-17.34,8.829-29.205,12.848c-0.95-6.219-1.816-11.849-1.683-16.19
	c0.194-6.629,1.838-11.526,5.103-18.444c2.543-5.397,7.995-10.05,10.793-11.893c6.985-4.575,12.365-7.484,20.132-10.594
	c7.801-3.087,17.412-3.109,25.529-1.843c-5.191-0.811,10.466,1.599,0,0C483.402,396.252,493.274,404.78,491.553,420.038z"/>
<path display="none" fill="#E85658" d="M906.064,297.289c0.767-6.263-2.343-12.881-8.572-11.26
	c-6.818,1.777-9.783,14.713-9.616,22.131c0.222,9.438-1.199,14.358-8.262,17.678c-4.642,2.176-10.683,3.609-15.191,5.741
	c-14.646,6.907-27.05,12.015-41.886,18.478c-8.351,3.642-16.579,7.506-24.508,11.97c-6.207,3.476-19.243,6.729-24.529,6.874
	c-13.459,0.411-1.477,2.843-9.239,10.26c-2.998,2.898-22.708,10.05-33.436,17.201c-4.785,3.231-9.782,7.707-10.805,13.659
	c-0.955,5.83,3.865,8.85,9.406,8.706c13.514-0.4,21.664-13.481,30.859-20.766c5.862-4.653,12.303-10.86,18.366-15.191
	c4.975-3.575,20.166-12.848,17.944-6.951c-2.298,5.885-9.894,21.065-16.845,30.981c-5.253,7.462-23.863,25.917-29.46,31.748
	c-4.509,4.664-7.707,14.813-3.032,19.244c4.687,4.464,10.683-0.199,13.759-5.019c4.242-6.618,8.062-13.581,12.215-20.277
	c5.774-9.261,11.371-18.633,16.623-28.228c2.477-4.597,5.63-12.137,6.674-14.658c1.055-2.532,3.343-10.893,6.641-12.059
	c1.565,25.54,2.676,55.322,2.11,80.929c-0.289,11.948-0.978,22.564-1.244,34.513c-0.089,4.02-0.556,9.872,1.443,13.037
	c2.644,4.23,10.571,2.176,11.815-1.933c1.121-3.753,1.021-6.074,0.377-9.827c-0.933-5.541-2.221-10.027-3.397-23.863
	c-0.488-5.797-3.165-68.004-3.465-72.646c-0.267-4.875-1.154-15.69-1.81-22.076c11.249,9.517,22.265,28.572,32.491,39.065
	c3.965,4.075,11.116,10.516,17.29,11.304c4.853,0.578,8.106-1.732,5.863-6.785c-2.377-5.264-10.438-9.028-14.836-11.027
	c-4.464-1.999-10.527-5.408-14.769-9.916c-8.995-9.483-26.118-30.904-20.677-35.39c6.552-5.396,20.854-11.393,32.991-16.401
	c5.764-2.365,30.593-13.403,33.613-13.47c3.021-0.056-1.966,12.304-5.441,20.709c-1.466,3.653-5.152,9.75-8.095,14.303
	c-1.744,2.721-6.385,6.318-3.576,7.54c2.732,1.177,11.116-8.106,15.303-14.713c4.186-6.585,8.628-14.136,11.537-22.498
	c1.088-3.209,2.909-8.694,5.729-10.871c2.688-2.043,3.221-1.333,6.374-2.487c4.608-1.61,17.456-2.332,16.412-8.817
	c-0.999-6.44-22.608,8.339-20.454,0.244C900.89,308.349,905.365,303.597,906.064,297.289z"/>
<path display="none" fill="#E85658" d="M749.759,360.951c-7.707-4.553-15.014-9.806-13.747-23.531
	c1.865-19.321,11.459-34.179,34.046-54.034c12.037-10.549,33.047-27.572,46.661-34.157c14.214-6.929,33.957-14.936,44.239-17.245
	c7.096-1.61,12.682-2.476,15.258-9.55c2.543-7.051-4.952-10.316-16.545-6.563c-4.687,1.51-26.307,11.515-41.453,20.232
	c-29.549,16.968-42.075,30.071-54.778,41.786c-5.886,5.475-25.896,29.216-29.249,34.935c-7.418,12.615-16.523,39.943,6.818,49.892
	C753.579,368.069,758.687,366.214,749.759,360.951z"/>
<path display="none" fill="#E85658" d="M825.402,311.181c1.243,8.273-1.644,13.625-3.021,16.757
	c-1.644,3.642-4.964,7.14-3.887,9.994c0.688,1.876,5.108-2.065,6.574-4.153c5.729-8.25,7.873-11.682,10.526-19.411
	c1.954-5.752,4.497-10.171,4.397-19.521c-0.233-13.147-16.146-12.093-16.968,1.21C822.781,300.443,824.447,304.951,825.402,311.181z
	"/>
<path display="none" fill="#E85658" d="M805.036,340.408c-3.087-4.73-5.452-13.226-5.918-18.844
	c-0.367-3.853-0.012-7.374,0.844-11.104c0.6-2.509,0.999-5.186-0.611-7.396c-2.598-3.531-7.361-1.466-10.216,0.555
	c-9.461,6.774-6.196,17.212-1.732,26.351c2.909,5.941,7.052,9.816,12.326,13.703c3.909,2.898,12.771,7.496,14.347,6.096
	C815.608,348.303,807.924,344.794,805.036,340.408z"/>
<path display="none" fill="#E85658" d="M899.402,408.822c5.43,0.688,11.038-7.851,12.925-10.727c3.776-5.73,7.84-12.126,9.65-16.19
	c2.81-6.318,10.894-24.374,3.087-28.105c-9.717-4.608-11.094,15.835-11.948,20.154c-0.833,4.353-3.276,14.125-7.329,22.143
	C902.733,402.226,895.294,408.323,899.402,408.822z"/>
<path display="none" fill="#E85658" d="M836.151,570.758c22.143-13.958,43.374-37.111,55.389-53.49
	c14.347-19.521,27.417-44.617,36.212-62.185c6.995-14.036,14.047-32.625,3.064-37.566c-5.696-2.565-8.828,1.999-12.226,7.729
	c-3.231,5.519-4.608,20.932-7.596,31.947c-2.477,9.084-7.573,26.141-26.851,53.935c-12.349,17.801-29.737,41.72-62.407,60.131
	c-17.189,9.683-35.878,11.104-32.125,19.732C793.399,599.596,814.054,584.683,836.151,570.758z"/>
<path display="none" fill="#E85658" d="M1088.722,269.95c0.655,10.149,1.811,30.271,2.287,38.232
	c0.5,7.962-2.01,43.341-3.242,56.044c-1.255,12.715-7.051,47.882-10.549,62.74c-3.432,14.858-8.617,51.213-39.898,87.37
	c-10.039,11.56-23.83,12.881-22.298,22.608c1.888,12.171,13.592,10.261,19.566,7.451c10.171-4.786,16.057-13.559,22.175-24.207
	c6.119-10.649,16.823-34.146,21.543-49.692c5.696-18.778,9.895-36.268,12.115-52.169c2.188-15.857,7.506-52.458,8.062-65.727
	c0.844-19.666,1.044-38.322-0.488-52.269c-1.199-10.727-2.888-55.711-7.984-57.91C1084.636,240.079,1087.822,256.27,1088.722,269.95
	z"/>
<path display="none" fill="#E85658" d="M1099.026,261.644c1.654-2.954,5.975-5.93,8.962-8.128
	c2.887-2.132,12.814-8.895,19.654-9.306c5.574-0.311,10.128,1.621,12.37,8.928c2.133,6.996-0.61,12.104-2.897,16.234
	c-2.898,5.219-13.781,21.365-12.671,24.94c1.155,3.62,8.684-0.555,10.905-1.333c22.342-7.884,27.938-6.485,35.778-3.487
	c12.281,4.742,14.591,24.763,14.458,36.312c-0.145,11.571-3.376,26.784-7.974,36.778c-4.541,9.983-15.058,21.609-28.716,17.223
	c-5.519-1.743-8.173-7.162-10.549-11.493c-2.51-4.642-4.021-8.817-4.986-11.759c-0.955-2.965-3.798-8.973-10.005-6.94
	c-4.708,1.543-4.652,6.152-2.243,12.415c1.755,4.575,5.896,9.395,9.35,13.681c3.154,3.931,6.963,6.308,10.894,9.672
	c7.207,6.163,22.298,1.455,29.616-6.674c9.683-10.638,13.991-22.842,18.277-34.491c4.342-11.637,5.919-21.831,5.375-36.778
	c-0.289-8.239-1.921-15.002-5.353-20.232c-2.276-3.465-9.827-8.195-14.125-9.261c-12.659-3.065-32.313,5.252-40.397,8.839
	c-8.096,3.62,12.059-18.167,16.468-27.25c3.764-7.896,1.432-18.034-6.696-21.176c-15.979-6.229-37.044,5.874-48.926,15.113
	c-7.396,5.774-14.403,11.726-21.077,18.145c-3.131,2.987-12.037,9.794-6.851,16.812c1.766,2.443,7.084,0.245,9.183-1.421
	c2.977-2.31,4.709-5.696,6.353-8.794c1.832-3.509,2.82-6.852,5.752-9.206C1092.597,266.108,1094.974,269.017,1099.026,261.644z"/>
<path fill="#E85658" d="M704.618,477.626l0.502-0.408c1.005-0.759,1.968-1.614,2.932-2.415c1.357-1.112,2.714-2.279,4.125-3.338
	c0.949-0.732,1.791-1.629,2.633-2.51c0.84-0.909,1.736-1.832,2.74-2.605c0.787-0.61,1.602-1.072,2.361-1.561
	c1.141-0.706,2.279-1.397,3.283-2.441c0.584-0.585,1.168-1.168,1.684-1.792c1.316-1.384,2.66-2.822,4.139-4.125l0.325-0.259
	l0.149-0.066c5.251-2.578,8.59-5.822,12.863-9.934l0.218-0.189c2.199-2.146,4.831-3.569,7.409-4.926
	c2.198-1.194,4.288-2.321,6.16-3.854c2.796-2.375,5.809-4.56,8.752-6.663c2.186-1.574,4.438-3.243,6.609-4.939
	c1.899-1.493,3.854-3.094,5.726-4.627c2.822-2.293,5.754-4.695,8.739-6.948c2.252-1.642,3.989-3.759,5.835-5.984
	c1.573-1.859,3.202-3.827,5.196-5.496c1.507-1.343,2.349-2.972,3.352-4.845l0.326-0.624c1.086-2.008,2.578-3.556,4.03-4.994
	c0.353-0.353,0.679-0.678,1.004-1.045c2.457-2.578,4.274-6.663,5.917-10.258c0.502-1.086,0.908-2.131,1.397-3.081
	c2.226-4.587,4.098-9.472,5.645-14.52c3.826-12.646,4.56-22.634,2.226-30.504c-0.76-2.551-2.198-4.084-3.867-5.862
	c-1.1-1.126-2.213-2.307-3.216-3.854c-1.683-2.551-4.206-4.314-6.921-6.188c-0.977-0.651-2.035-1.411-3.039-2.171
	c-8.143-6.296-29.907-10.096-43.613-6.812c-13.705,3.284-10.773,3.637-16.147,5.862c-2.388,1.032-4.816,2.036-7.245,3.04
	c-4.099,1.669-8.318,3.393-12.39,5.211c-1.018,0.448-2.049,0.95-2.999,1.438c-1.547,0.76-6.337,2.687-7.097,2.904
	c-1.642,0.543-7.205,3.854-8.549,4.98c-1.289,1.126-12.742,8.956-13.61,10.109c-0.691,0.869-7.313,6.215-8.169,7.083
	c-2.334,2.348-4.844,4.614-7.286,6.812c-6.012,5.306-12.146,10.829-15.809,17.857c-1.792,3.46-1.33,8.576,2.238,10.72
	c0.624,0.38,1.235,0.584,1.832,0.597c2.28,0.176,4.084-2.226,5.184-4.234l0.924-1.709c4.857-8.847,9.43-17.179,16.757-24.615
	c1.67-1.737,19.907-16.609,24.548-18.997c3.392-1.764,6.785-3.691,10.041-5.55c7.518-4.247,15.293-8.644,23.72-11.52
	c5.266-1.737,11.534-2.605,17.029-3.393l1.073-0.136c2.252-0.298,4.681-0.38,7.436-0.19c2.334,0.163,4.966,0.516,7.951,1.059
	c7.694,1.384,18.455,4.749,26.108,12.674c3.337,3.419,5.55,7.409,6.377,11.507c0.476,2.429,3.609,13.555-1.696,31.48
	c-0.284,0.937-0.773,1.819-1.18,2.742c-1.547,3.731-3.148,7.544-5.049,10.964c-2.374,4.233-5.943,8.521-9.131,12.294l-0.476,0.556
	c-0.706,0.828-1.384,1.696-2.09,2.551c-2.605,3.203-5.306,6.486-8.522,9.024c-2.957,2.334-5.943,4.803-8.847,7.178
	c-6.554,5.36-13.325,10.896-20.503,15.74c-4.749,3.189-9.676,6.337-14.479,9.349l-2.781,1.737c-1.994,1.262-4.302,2.538-6.459,2.389
	c-2.049-0.137-3.501-1.467-4.343-3.922c-1.315-3.867-1.533-8.047-1.723-12.036c-0.067-0.869-0.082-1.709-0.136-2.524
	c-0.23-3.772-0.732-7.585-1.221-11.263c-0.259-2.252-0.543-4.559-0.801-6.812c-0.285-3.012-0.679-6.079-1.06-9.092
	c-1.099-9.2-2.293-18.726-1.75-27.966c0.163-2.755-0.177-5.523-0.407-8.155c-0.217-2.226-0.461-4.532-0.461-6.798
	c0.026-2.022,0.203-4.03,0.353-5.957c0.204-2.036,0.407-4.098,0.38-6.161c0-0.977-0.176-5.916-2.687-6.052
	c-0.38-0.054-0.842,0.041-1.343,0.204c-3.216,1.126-2.904,5.441-2.294,10.543c0.163,1.167,0.325,2.321,0.354,3.257
	c0.108,3.46,0.216,6.92,0.298,10.381c0.109,2.944,0.149,5.875,0.271,8.833c0.054,1.574,0.014,3.256-0.027,4.885
	c-0.054,3.664-0.149,7.517,0.706,10.774c1.193,4.667,1.451,9.132,1.709,13.841c0.096,1.519,0.163,3.094,0.299,4.695
	c0.475,6.188,1.194,12.402,1.9,18.237c0.136,1.031,0.258,2.063,0.406,3.04c0.679,5.075,1.316,9.852-0.054,15.375
	c-0.326,1.247-0.489,2.673-0.651,4.017c-0.462,3.84-0.924,7.774-4.723,10.245c-0.841,0.542-1.709,1.111-2.51,1.654
	c-3.896,2.592-7.897,5.292-12.524,6.704c-3.121,0.95-5.998,3.338-8.563,7.056c-1.315,1.954-2.184,5.672-1.315,8.346
	c0.461,1.315,1.262,2.184,2.47,2.564c0.461,0.149,0.936,0.243,1.411,0.271C696.925,483.746,701.565,480.069,704.618,477.626z
	 M1152.168,389.859c0.353-1.547,0.529-3.148,0.773-4.695c0.542-3.922,1.112-7.979,3.69-11.413c1.086-1.424,2.117-2.998,3.066-4.518
	c1.791-2.687,3.65-5.51,5.998-7.87c5.102-5.266,13.542-8.169,21.874-7.626c2.809,0.177,5.428,0.733,7.789,1.683
	c0.435,0.136,0.842,0.326,1.356,0.516c2.063,0.869,4.396,1.777,6.541,1.94c1.14,0.041,2.076-0.122,2.904-0.529
	c1.003-0.515,1.411-1.628,1.601-2.442c0.394-1.981-0.095-4.586-1.153-5.917c-2.293-2.822-6.146-4.491-11.494-4.844
	c-6.513-0.42-13.568,1.208-18.074,2.863l-1.14,0.407c-4.125,1.493-8.752,3.188-11.507,6.147c-0.949,1.031-1.736,2.13-2.523,3.216
	c-1.737,2.415-3.542,4.913-7.057,6.228l-0.842,0.353l-0.461-0.773c-0.842-1.411-1.139-2.47-0.923-3.243
	c-0.081-2.211,0.706-4.396,1.548-6.486c0.623-1.709,1.248-3.297,1.343-4.722c0.122-2.375-1.479-2.986-2.864-3.081
	c-1.192-0.081-2.51,0.244-3.567,0.787c-4.41,2.348-4.384,5.156-4.058,10.327c0.406,5.496-0.516,11.059-1.357,16.433
	c-0.732,4.559-1.465,9.309-1.411,13.895v0.719c0,2.32,0,8.454,2.416,9.159c0.285,0.055,0.543,0.109,0.8,0.136
	C1148.626,396.698,1151.503,392.776,1152.168,389.859z M1227.18,351.891c1.222,0.027,2.226-1.546,2.279-2.985
	c0.041-0.841-0.189-1.846-1.505-1.927c-0.191-0.027-0.408-0.013-0.598,0c-2.035,0.245-2.253,1.737-2.198,2.375
	c0,1.208,0.746,2.442,1.954,2.51L1227.18,351.891z M1106.15,399.281c2.076-0.108,4.233-0.258,6.392-0.136
	c0.435,0.041,0.868,0.095,1.302,0.136c0.733,0.081,1.398,0.285,2.01,0.516c0.597,0.217,1.126,0.353,1.628,0.407
	c0.325,0.027,0.597-0.027,0.896-0.135c1.181-0.462,2.334-1.031,3.69-1.764c3.338-1.873,4.125-3.881,2.985-7.382
	c-0.773-2.334-1.71-3.637-2.741-3.691c-0.067,0-0.149,0-0.217,0c-1.873,0.136-3.826,0.597-6.175,1.493
	c-1.152,0.407-2.401,0.909-3.541,1.398c-2.931,1.235-5.998,2.497-9.282,2.958c-0.746,0.122-2.632,0.312-4.749,0.176
	c-5.78-0.38-6.825-3.053-6.865-4.614l-0.055-0.597l0.475-0.366c1.153-0.801,1.737-1.045,2.104-1.126
	c1.872-0.733,3.84-0.882,5.754-1.032c2.279-0.189,4.396-0.353,6.2-1.424c2.851-1.724,4.886-7.26,3.922-10.652
	c-1.479-5.102-7.015-7.721-11.561-8.02c-2.646-0.176-5.156,0.421-7.083,1.642c-1.073,0.733-1.941,2.28-2.796,3.759
	c-1.315,2.32-2.688,4.722-5.211,5.197c-0.569,0.108-1.221,0.149-1.832,0.108c-1.804-0.108-3.433-0.827-5.061-1.52
	c-1.507-0.651-2.932-1.249-4.329-1.343c-0.732-0.054-1.397,0.041-2.021,0.298c-1.711,0.611-3.066,2.239-3.475,4.058
	c-0.163,0.882-0.271,2.523,1.086,3.867c2.226,2.212,5.754,3.107,8.875,3.895c1.099,0.271,2.171,0.516,3.256,0.76
	c0.773,0.176,1.533,0.353,2.28,0.529c2.185,0.543,2.795,2.89,3.284,4.817c0.189,0.773,0.379,1.52,0.637,1.968
	c1.995,3.731,7.966,4.926,11.575,5.618c0.787,0.19,1.642,0.285,2.578,0.353C1102.093,399.539,1104.156,399.417,1106.15,399.281z
	 M1103.763,375.507l0.014,0.298l-0.177,0.271c-1.221,1.886-4.56,2.727-7.016,2.564c-1.262-0.095-2.334-0.421-3.161-0.963
	l-0.34-0.244l-0.081-0.435c-0.299-1.438,0.108-2.931,1.194-4.207c1.356-1.574,3.568-2.537,5.481-2.388
	C1101.687,370.513,1103.803,371.924,1103.763,375.507z M1017.244,415.172c2.47,0.027,2.769-3.867,2.822-7.911
	c0.041-0.841,0.067-1.561,0.136-2.13c0.38-4.016,1.872-7.734,3.311-11.317c0.638-1.561,1.275-3.175,1.818-4.79
	c1.1-3.243,2.429-5.496,4.736-8.02c0.353-0.38,0.746-0.95,1.126-1.574c0.896-1.411,1.927-2.985,3.569-3.515
	c0.528-0.149,1.071-0.217,1.573-0.189c4.437,0.312,6.297,7.544,7.206,11.059l0.121,0.489c0.394,1.574,0.883,3.202,1.344,4.722
	c1.14,3.799,2.334,7.735,2.619,11.792c0.122,1.805,0.937,6.039,5.55,6.392h0.081c1.575,0.108,2.931-0.38,3.854-1.371
	c1.086-1.153,1.628-2.958,1.384-4.925c-0.421-3.04-1.736-5.374-3.135-7.843c-0.882-1.52-1.791-3.175-2.537-5.021
	c-0.638-1.764-1.167-4.179-1.764-6.771c-1.548-7.11-3.447-15.971-9.472-16.84c-0.19-0.014-0.394-0.054-0.598-0.068
	c-4.017-0.271-7.789,2.944-10.991,5.93c-0.325,0.339-1.017,1.14-1.683,2.008c-2.809,3.474-4.925,5.943-6.812,5.807
	c-0.082,0-0.177,0-0.271-0.027l-0.923-0.217l0.055-0.949c0.095-1.222,0.217-2.145,0.38-2.742l0.026-0.054
	c0.489-3.5,1.357-9.363-0.339-11.425c-0.339-0.461-0.773-0.719-1.425-0.747c-0.732-0.041-1.628,0.149-2.687,0.583
	c-6.677,2.687-5.292,16.121-4.532,23.34c0.108,1.113,0.217,2.117,0.285,2.958c0.054,0.76,0.068,1.927,0.122,3.419
	c0.027,5.862,0.23,19.622,4.939,19.947H1017.244z M922.518,378.271c2.348-0.597,3.678-4.478,3.405-7.517
	c-0.149-1.249-0.705-4.207-3.392-4.397c-0.462-0.027-0.937,0.027-1.521,0.136c-2.496,0.638-3.147,3.446-2.958,5.889
	c0.285,3.175,1.955,5.862,3.746,5.943C922.043,378.352,922.273,378.338,922.518,378.271z M957.232,539.169
	c9.661,0.081,16.758-4.98,21.02-15.036c1.533-3.636,2.239-7.747,2.903-11.669c0.203-1.222,0.421-2.47,0.665-3.664
	c0.366-2.117,0.176-4.071-0.082-6.161c-0.081-0.746-0.162-1.465-0.189-2.226c-0.19-2.333,0.014-4.748,0.189-7.042
	c0.055-0.665,0.137-1.289,0.163-1.941c1.045-14.627,1.357-26.948,1.019-38.78l-0.014-0.652c-0.178-6.228-0.354-12.619-0.733-18.929
	c-0.271-5.062-0.705-9.974-2.795-14.262l-0.325-0.651l0.528-0.569c0.747-0.815,1.533-1.615,2.348-2.416
	c5.808-6.052,11.344-11.724,8.63-20.571c-2.197-7.043-9.634-8.97-15.509-9.336c-2.349-0.176-4.886-0.109-7.329,0.203
	c-7.721,0.937-17.518,6.364-20.489,13.76c-1.275,3.148-1.344,5.984-0.121,8.413c2.184,4.383,7.883,6.771,12.307,7.965
	c0.801,0.203,1.669,0.434,2.564,0.651c4.505,1.059,10.137,2.388,12.674,6.242c1.899,2.931,2.09,7.3,2.279,10.801
	c0.014,0.679,0.028,1.33,0.108,1.954c0.733,11.344,0.924,23.529,0.692,37.234c-0.149,6.73-0.394,13.651-0.787,21.061
	c-0.081,1.764-0.04,3.582,0.015,5.347c0.067,1.221,0.08,2.455,0.08,3.69c-0.026,1.737-0.325,3.365-0.678,4.939
	c-0.203,1.058-0.407,2.076-0.516,3.12c-0.95,8.332-3.826,19.053-12.063,22.688c-1.98,0.923-4.139,1.222-6.581,1.086
	c-2.66-0.19-5.265-0.868-7.763-1.574c-1.058-0.285-2.048-0.569-2.998-0.787c-0.624-0.108-1.262-0.271-1.886-0.394
	c-4.126-0.854-9.241-1.913-11.101-6.445c-1.75-4.274-2.197-10.381-1.289-18.631c0.517-5.062,1.914-9.973,3.244-14.75
	c0.229-0.841,0.488-1.71,0.732-2.578c1.221-4.342,3.188-7.762,5.237-11.385c0.761-1.344,1.574-2.769,2.334-4.221
	c2.05-3.88,4.885-8.82,8.82-12.198c0.923-0.814,2.035-1.602,3.176-2.416c2.673-1.858,5.387-3.813,6.351-6.526
	c0.406-1.194,0.312-2.307-0.272-3.339c-0.949-1.601-3.093-2.876-5.509-3.352c-0.461-0.095-0.937-0.149-1.356-0.176
	c-8.102-0.516-12.484,8.996-15.659,15.957c-0.23,0.489-0.475,0.978-0.706,1.466c-1.33,2.877-2.551,5.903-3.772,8.793
	c-1.086,2.687-2.226,5.496-3.474,8.196c-1.547,3.365-2.267,7.517-2.931,11.507c-0.299,1.642-0.57,3.325-0.938,4.912
	c-0.65,3.067-1.289,6.351-1.505,9.635c-0.081,1.465,0.054,2.931,0.271,4.465c0.163,1.071,0.299,2.238,0.353,3.405
	c0,0.854,0,1.723,0.042,2.604c0.067,4.52,0.095,9.146,1.994,12.919c1.927,3.908,6.894,4.939,11.223,5.849
	c0.609,0.095,1.152,0.23,1.669,0.353c1.764,0.393,3.5,0.896,5.21,1.385c3.067,0.895,6.229,1.804,9.39,2.021
	C956.499,539.141,956.853,539.169,957.232,539.169z M966.038,390.312l0.91-0.258c1.153-0.312,1.547-0.448,1.791-0.434
	c0.068,0,0.095,0.027,0.136,0.027c1.113-0.149,2.348-0.176,3.568-0.095c2.09,0.123,4.342,0.57,7.124,1.384
	c2.959,0.869,3.284,1.601,3.393,4.586c0.055,1.94-0.163,3.501-0.597,4.885c-1.222,3.583-3.121,5.727-6.378,7.206
	c-1.289,0.611-2.009,1.316-2.497,2.578c-0.122,0.339-0.217,0.638-0.299,0.963c-0.393,1.126-0.854,2.687-2.808,2.551
	c-0.313-0.013-0.638-0.082-1.019-0.176c-0.706-0.204-1.683-0.448-2.822-0.692c-5.157-1.14-12.973-2.85-13.081-8.331
	c-0.122-5.591,7.803-12.24,12.552-14.14L966.038,390.312z M982.335,418.061c-0.162,0.054-0.352,0.217-0.638,0.475
	c0.149,0.258,0.299,0.394,0.395,0.462C982.2,418.767,982.335,418.373,982.335,418.061z M883.044,440.147
	c0.706-1.058,1.194-2.225,1.736-3.392c0.747-1.819,1.574-3.678,3.148-5.32c1.276-1.302,1.655-2.687,2.13-4.464
	c0.123-0.583,0.286-1.18,0.502-1.832c0.53-1.655,1.304-3.012,2.076-4.314c1.398-2.389,2.512-4.261,1.777-7.341
	c-0.786-3.352-3.066-3.99-6.729-4.763c-1.452-0.298-2.958-0.597-4.369-1.221c-0.516-0.19-1.086-0.421-1.684-0.652
	c-3.854-1.52-8.615-3.392-9.674-7.83c-0.692-2.999-0.327-5.916,1.071-8.142c1.222-1.94,3.135-3.27,5.55-3.786
	c0.381-0.095,0.801-0.136,1.208-0.109c1.533,0.082,2.687,1.072,3.69,1.954c0.313,0.244,0.625,0.516,0.896,0.746
	c0.732,0.489,1.629,0.787,2.688,0.855c0.841,0.054,1.777-0.041,2.741-0.271c2.089-0.516,3.501-1.602,4.179-3.148
	c0.76-1.683,0.517-3.8-0.61-5.835c-1.561-2.822-3.433-3.46-6.338-3.65c-0.678-0.068-1.438-0.068-2.197-0.095
	c-0.381,0-0.72-0.027-1.113-0.027l-1.736-0.041l-0.38-0.041c-2.877-0.109-5.971-0.082-8.196,1.425
	c-1.968,1.316-3.378,4.125-4.506,6.391l-0.325,0.651c-3.718,7.382-3.649,17.138,5.021,22.281c2.117,1.276,4.505,1.886,7.001,2.498
	c1.548,0.366,3.149,0.773,4.628,1.316c2.05,0.746,3.242,1.75,3.704,3.135c0.625,1.981-0.583,4.179-2.008,6.323
	c-0.597,0.868-1.14,1.764-1.724,2.66c-1.954,3.026-3.921,6.147-6.947,8.657c-1.425,1.167-3.054,2.089-4.613,2.958
	c-2.131,1.194-4.194,2.334-5.659,4.044c-0.908,1.072-1.14,2.199-0.651,3.378c0.706,1.805,3.054,3.502,5.333,3.759
	c0.096,0,0.23,0.027,0.326,0C876.91,447.176,880.899,443.431,883.044,440.147z M926.276,428.532c1.872-4.247,0.841-9.2-0.177-14.003
	c-0.488-2.307-0.99-4.695-1.167-6.961c-0.162-2.456-0.122-4.98-0.095-7.436c0.027-2.945,0.095-5.93-0.23-8.833
	c-0.964-0.475-1.696-2.036-1.859-2.985c-0.162-0.027-0.325-0.041-0.516-0.082c-1.248-0.082-2.497,0.556-3.501,1.683
	c-1.112,1.357-1.601,3.121-1.222,4.722c0.842,3.609,1.1,7.396,1.412,11.045c0.136,2.036,0.325,4.153,0.569,6.188
	c0.108,0.638,0.163,1.466,0.23,2.416c0.421,4.6,1.208,14.167,5.238,14.424C925.354,428.722,925.788,428.695,926.276,428.532z
	 M830.421,441.585l2.145-0.271c4.314-0.515,8.412-0.963,12.349-2.741c2.632-1.208,8.603-4.505,6.54-9.173
	c-0.95-2.076-3.284-3.935-6.025-4.098c-0.813-0.067-2.401,0.461-3.338,1.167c-1.14,0.869-1.303,2.579-2.171,3.623
	c-1.329,1.587-3.514,5.143-6.215,6.12c-1.655,0.57-4.424,0.475-6.744,0.326c-1.479-0.081-3.433-0.841-4.438-1.546
	c-1.573-1.1-1.438-4.804-1.14-6.568c0.38-2.252,2.524-4.478,4.939-5.156c2.049-0.57,4.098-2.361,6.052-4.071
	c0.706-0.638,1.384-1.248,2.076-1.791c3.298-2.632,7.016-6.147,6.256-10.123c-0.597-2.877-3.881-4.397-6.73-4.831
	c-0.489-0.068-0.95-0.136-1.411-0.163c-8.604-0.543-11.969,7.002-14.112,14.465c-1.818,6.134-6.608,6.432-10.856,6.663
	c-2.537,0.163-5.156,0.312-7.191,1.615c-1.356,0.896-1.601,2.09-1.546,2.904c0.108,1.628,1.315,3.256,2.931,3.989
	c1.139,0.543,2.441,0.868,3.664,0.937c0.908,0.041,1.817-0.014,2.578-0.218c0.596-0.148,1.207-0.394,1.832-0.691
	c1.207-0.502,2.591-1.113,4.084-1.004c0.217,0.027,0.461,0.054,0.691,0.109c0.095,0.026,0.176,0.026,0.271,0.054l0.285,0.082
	l0.217,0.19c0.774,0.828,1.113,1.221,1.249,1.574c0.814,1.221,1.397,2.537,1.968,3.786c0.148,0.339,0.285,0.665,0.447,0.991
	c1.234,2.755,3.025,4.03,5.931,4.22C826.636,442.046,828.494,441.803,830.421,441.585z M834.872,408.368l0.733,0.407l-0.218,0.788
	c-1.221,4.559-5.062,6.16-8.603,7.3l-1.235,0.407l-0.177-1.302c-0.217-1.886,0.651-4.166,2.308-5.889
	c1.52-1.602,3.419-2.483,5.169-2.361C833.583,407.757,834.248,407.974,834.872,408.368z M283.205,530.221
	c4.057,0.258,8.562,0.082,11.669-3.121c0.23-0.244,0.461-0.488,0.706-0.732c1.208-1.303,7.328-7.721,7.681-8.386
	c0.963-2.036,2.429-2.388,3.46-2.307c1.302,0.081,2.551,0.813,3.718,1.602c1.33,0.854,2.877,1.384,4.438,1.438
	c0.543,0.067,1.099,0.054,1.642,0c2.171-0.245,3.393-1.547,4.56-4.777c0.542-1.465,0.61-3.555-0.801-4.871
	c-1.045-0.95-2.538-1.466-4.084-1.994c-2.171-0.788-4.41-1.575-5.808-3.651c-0.896-1.37-0.556-3.486-0.271-5.332
	c0.095-0.624,0.19-1.194,0.217-1.588c0.082-1.858,0.136-4.03-0.217-6.174c-0.393-2.253-1.859-4.791-4.179-4.94
	c-0.841-0.054-1.709,0.191-2.578,0.761c-1.75,1.072-3.04,2.903-3.487,4.898c-0.095,0.367-0.149,0.76-0.231,1.181
	c-0.326,1.872-0.705,4.044-2.578,5.4l-0.448,0.299l-0.543-0.163c-8.942-2.876-14.451-6.812-17.328-12.416l-0.23-0.475l0.204-0.462
	c2.66-6.064,6.052-11.791,9.376-17.314c1.764-2.999,3.609-6.079,5.278-9.146l0.76-1.383c3.908-7.111,8.277-15.131,10.584-22.933
	c1.832-6.391,3.718-15.768,2.185-24.276c-1.438-7.966-6.771-13.203-11.792-17.382c-5.088-4.153-10.666-8.386-17.803-9.716
	c-1.302-0.244-2.578-0.407-3.867-0.488c-7.069-0.461-13.976,1.465-19.934,5.591c-5.496,3.84-10.123,9.851-13.705,17.884
	c-1.914,4.396-3.176,8.739-3.678,12.836c-0.339,2.904-0.041,5.713,0.285,8.658c0.108,1.113,0.258,2.32,0.325,3.515
	c0.828,10.707,3.99,21.602,9.16,31.495c2.415,4.694,5.495,9.118,9.037,13.122c1.858,2.13,4.111,3.975,6.241,5.767
	c1.859,1.52,3.732,3.106,5.442,4.871c3.867,3.948,2.877,7.45,1.845,11.195c-0.353,1.303-0.76,2.687-0.936,4.152
	c-0.747,5.414-0.692,10.055,0.013,14.221c1.602,8.874,7.273,14.505,15.171,15.089L283.205,530.221z M274.561,497.302
	c0.041-0.082,0.136-0.19,0.271-0.354c0.991-1.248,1.547-1.831,2.307-1.791l0.543,0.027l0.312,0.407
	c0.013,0.081,0.068,0.163,0.122,0.244c2.85,1.384,5.346,3.338,7.626,5.048c0.679,0.516,1.818,1.181,3.013,1.886
	c4.138,2.416,9.784,5.713,8.874,10.001c-0.922,4.506-6.581,6.622-11.398,6.324c-1.181-0.082-2.226-0.313-3.081-0.652
	c-4.546-1.791-8.291-7.462-9.458-12.349c-0.38-0.597-0.408-1.736-0.408-2.429c-0.163-2.211,0.217-4.302,1.032-6.105L274.561,497.302
	z M296.869,408.177c8.196,17.926-2.442,37.127-9.743,49.977c-0.054,0.122-1.574,2.809-1.574,2.809v-0.013
	c-2.524,4.369-5.021,8.617-7.26,12.389c-1.248,2.172-2.469,4.179-3.569,6.093l-0.516,0.882l-0.923-0.461
	c-4.125-1.981-8.168-4.017-11.669-6.894c-2.307-1.913-3.935-4.262-5.509-6.541c-0.773-1.086-1.547-2.198-2.375-3.27
	c-4.193-5.252-5.713-10.625-7.314-16.298c-0.625-2.13-1.262-4.314-2.008-6.567c-2.416-7.002-2.579-14.737-0.434-22.403
	c2.252-7.816,7.504-12.688,12.646-17.423c4.342-4.017,10.937-6.065,18.129-5.577C284.792,395.503,293.477,400.742,296.869,408.177z
	 M371.962,525.107c1.9-1.832,2.497-6.678,2.415-9.5c-0.176-7.91-1.289-16.84-3.256-27.301c-1.887-9.566-0.666-18.251,0.732-25.498
	l0.434-2.062l1.438,1.519c3.365,3.502,23.773,29.202,24.94,12.375c0.027-1.017,0.027-1.898,0.095-2.591
	c0.394-2.701,1.018-5.495,1.669-8.183c0.543-2.307,1.1-4.654,1.465-7.002l0.313-1.818c0.611-3.827,1.234-7.788,2.063-11.643
	c0.787-3.582,1.832-7.137,2.863-10.543c0.244-0.963,0.543-1.859,0.8-2.782c0.163-0.57,0.34-1.384,0.475-2.252
	c0.407-2.442,0.937-5.455,2.741-6.948c0.218-0.176,0.462-0.353,0.801-0.516l0.666-0.325l0.57,0.516
	c1.262,1.221,25.28,48.172,25.891,49.881c0.135,0.353,0.243,0.679,0.393,1.031c1.222,3.258,3.053,6.106,5.035,9.133
	c1.167,1.806,2.388,3.677,3.473,5.631c2.28,4.288,4.696,8.685,8.549,11.656c1.872,1.452,4.817,3.243,7.938,3.475
	c1.506,0.095,2.917-0.231,4.206-0.896c1.371-0.746,2.348-1.994,2.701-3.433c0.352-1.425,0.068-2.903-0.761-4.152
	c-1.465-2.116-3.826-3.515-6.133-4.857c-0.841-0.516-1.737-1.032-2.523-1.574c-4.52-2.986-8.25-7.165-11.67-11.182
	c-7.273-8.63-12.131-19.093-16.84-29.961c-3.568-8.237-6.201-16.962-8.792-25.375c-0.869-2.876-1.737-5.808-2.674-8.684
	c-0.189-0.625-0.42-1.493-0.705-2.497c-1.086-4.261-3.42-13.149-7.274-13.407c-0.57-0.027-1.153,0.108-1.859,0.434
	c-1.235,1.14-1.262,2.687-1.316,4.492c-0.041,0.8-0.054,1.642-0.203,2.483c-0.448,2.632-1.317,5.21-2.131,7.667
	c-0.271,0.801-0.502,1.574-0.76,2.348c-1.086,3.419-2.063,6.988-3.013,10.421c-1.003,3.637-2.021,7.409-3.203,11.073
	c-2.428,7.504-3.962,13.556-5.033,19.688l-0.068,0.529c-0.923,5.251-1.927,11.209-5.591,15.551l-0.638,0.788l-0.814-0.597
	c-4.111-2.932-6.799-7.206-9.403-11.318c-1.113-1.804-2.253-3.608-3.474-5.265c-1.317-1.778-3.365-4.18-5.809-4.314
	c-0.108-0.042-0.203-0.042-0.299-0.042c-2.089,0.014-3.012,2.131-3.744,5.334c-1.873,8.439-2.036,17.396-2.008,24.222
	c0.054,4.166-0.136,8.372-0.299,12.43c-0.19,4.124-0.353,8.398-0.313,12.578c0.055,4.18,0.258,8.698,0.706,13.393
	c0.285,3.095,0.827,6.147,2.835,7.505c0.991,0.664,1.874,0.977,2.593,1.031C370.85,525.825,371.447,525.608,371.962,525.107z
	 M581.571,420.906c0.936-1.452,1.085-3.42,0.326-5.156c-0.706-1.628-2.104-2.619-3.8-2.728c-0.203-0.014-0.407-0.014-0.611-0.014
	c-1.099,0.082-2.062,0.542-2.768,1.493c-0.963,1.249-1.371,3.162-0.99,4.898c0.42,2.049,2.794,2.728,4.857,2.891
	C579.277,421.557,580.702,421.096,581.571,420.906z M633.039,466.092c3.203-0.665,7.519-2.144,10.015-5.387
	c1.329-1.683,1.872-4.166,1.357-5.917c-0.326-1.126-1.059-1.846-2.158-2.252c-0.502-0.177-0.963-0.285-1.425-0.298
	c-2.252-0.149-3.84,1.519-5.645,3.5c-0.516,0.488-1.005,1.005-1.493,1.493c-2.063,1.953-4.505,2.917-7.151,2.728
	c-1.588-0.083-3.189-0.584-4.763-1.479c-2.442-1.316-3.989-3.623-4.017-5.822c-0.027-1.764,0.937-3.31,2.714-4.328
	c1.33-0.773,2.633-1.37,3.908-1.968c2.117-0.977,4.125-1.899,5.957-3.474c2.171-1.791,6.961-6.432,4.682-10.34
	c-1.655-2.863-5.373-5.21-8.644-5.414c-0.217,0-0.42-0.014-0.665,0c-3.909,0.095-8.631,3.515-11.833,6.106
	c-1.438,1.154-3.053,2.578-3.989,4.248c-0.475,0.869-0.705,1.873-0.909,2.985c-0.244,1.303-0.529,2.673-1.344,3.936l-0.257,0.407
	l-0.475,0.081c-1.289,0.216-2.225,0.313-2.768,0.271c-0.57-0.055-0.896-0.244-1.113-0.488c-1.438-0.46-2.592-1.275-3.772-2.09
	c-0.869-0.623-1.764-1.275-2.863-1.791c-0.665-0.285-1.344-0.448-2.022-0.489c-1.777-0.136-4.016,0.625-4.478,3.121
	c-0.407,2.035-0.189,3.609,0.583,4.722c1.642,2.294,5.699,2.837,9.648,3.393c3.243,0.461,6.269,0.883,8.358,2.226
	c2.171,1.411,3.528,3.352,4.844,5.252c1.493,2.13,2.863,4.139,5.387,5.306c2.66,1.193,5.591,1.953,8.468,2.116
	C629.186,466.608,631.167,466.445,633.039,466.092z M628.181,431.49l0.68-0.041l0.38,0.611c0.258,0.516,0.61,0.99,1.004,1.465
	l0.61,0.814l-0.203,0.57c-1.899,5.292-8.48,9.322-14.981,9.105l-1.153-0.041l0.123-1.141c0.326-5.251,4.125-9.24,10.176-10.773
	C625.359,431.734,626.336,431.653,628.181,431.49z M581.869,474.478c2.565-4.559-0.231-13.135-1.859-18.278l-0.217-0.583
	c-1.52-4.776-0.638-9.499,0.217-14.085c0.203-0.95,0.38-1.9,0.557-2.877c0.068-0.557-0.095-1.072-0.475-1.602
	c-0.814-0.977-2.497-1.736-4.139-1.845c-0.447-0.027-0.882-0.027-1.261,0.055c-0.407,0.352-0.977,0.841-1.385,1.099
	c-1.628,2.538-1.303,6.798-1.058,9.974l0.081,0.963c0.136,1.669,0.218,3.339,0.299,5.007c0.231,3.801,0.434,7.749,0.977,11.534
	c0.516,3.801,1.302,8.061,3.759,10.422c0.475,0.448,1.465,0.923,2.591,1.004C580.606,475.292,581.503,475.198,581.869,474.478z
	 M550.733,477.79c0.529-1.493,0.651-3.149,0.787-4.913c0.109-2.008,5.157-25.049,6.161-26.963c1.683-3.161,1.669-5.522-0.135-8.154
	c-1.303-1.914-3.338-2.958-5.21-2.619c-0.666,0.149-1.384,0.475-1.955,0.991c-1.547,1.275-1.547,4.071-1.547,6.541
	c-0.027,0.76,0,1.492-0.041,2.145c-0.203,2.307,0.448,5.292,0.312,7.571c-0.163,2.646-0.312,5.699-0.529,8.413
	c-0.054,0.569-0.013,1.249,0,2.008c0.014,2.633,0.313,5.32-1.9,7.002l-1.615,0.217l-0.651-0.543
	c-0.313-0.229-0.543-0.461-0.733-0.624c-2.606-2.578-3.501-6.269-4.315-9.538c-0.136-0.543-0.244-1.06-0.38-1.575
	c-0.326-1.152-0.76-2.266-1.262-3.446c-0.489-1.126-0.977-2.32-1.343-3.555c-0.217-0.801-0.286-1.602-0.367-2.375
	c-0.163-1.248-0.298-2.388-0.936-3.352c-1.263-2.022-3.691-3.067-6.161-2.564c-0.787,0.135-1.533,0.434-2.199,0.895
	c-2.456,1.602-2.646,5.943-2.646,7.261c0,5.631,3.732,9.267,7.694,13.094c1.846,1.791,3.746,3.638,5.279,5.728l0.339,0.434
	c6.541,8.941,9.797,10.448,11.398,10.177C549.565,479.879,550.23,479.145,550.733,477.79z M500.011,488.261
	c6.188-0.421,12.376-5.197,14.059-10.814c1.615-5.265,0.705-13.679-0.991-18.916c-1.56-4.79-8.819-8.277-13.501-9.201
	c-0.42-0.094-0.869-0.189-1.384-0.284c-1.289-0.299-2.741-0.638-4.043-0.719c-0.855-0.054-1.547,0-2.076,0.162
	c-1.018,0.326-1.75,1.127-2.565,1.98c-0.868,0.95-1.873,2.036-3.365,2.579l-0.516,0.177l-0.447-0.326
	c-1.86-1.247-3.624-1.954-5.279-2.048c-2.32-0.163-4.41,0.854-6.188,3.066c-3.908,4.694-5.157,13.271-3.8,18.318
	c1.343,5.252,4.939,11.711,10.964,14.058c2.822,1.113,6.296,1.818,10.177,2.063C493.796,488.519,496.687,488.505,500.011,488.261z
	 M479.467,462.276c0.787-0.706,1.683-1.113,2.457-1.507c1.425-0.719,2.429-1.181,2.795-3.025l0.203-1.086l1.086,0.217
	c1.981,0.408,2.958,1.913,3.799,3.257c0.543,0.829,1.045,1.629,1.792,2.049c1.927,1.182,4.206,1.479,6.622,1.778
	c1.357,0.189,2.727,0.38,4.044,0.706c3.392,0.867,5.102,6.88,5.115,10.014c-0.014,3.257-1.954,5.835-5.442,7.165
	c-2.631,1.045-6.703,2.198-11.181,1.9c-3.392-0.219-6.324-1.236-8.766-3.014c-3-2.171-5.048-5.428-5.591-8.929
	c-0.394-2.659,0.095-5.237,1.465-7.463C478.111,463.728,478.762,462.683,479.467,462.276z M41.727,581.443
	c0.222-2.17-0.043-4.299-0.279-6.567c-0.273-2.387-0.555-4.869-0.24-7.389c0.594-5.28,1.288-11.47,1.667-17.658
	c0.299-4.765,1.117-8.867,2.487-12.254c0.52-1.242,1.344-1.476,1.806-1.489c1.659-0.034,3.041,1.944,5.188,5.846
	c0.245,0.469,0.503,0.938,0.583,1.066l0.545,0.797c3.026,4.467,6.136,9.102,8.659,14.047c0.815,1.563,1.46,3.361,2.112,5.075
	c1.019,2.827,2.084,5.704,3.815,7.789c0.848,0.989,2.065,1.524,3.385,1.506c1.508-0.048,2.835-0.761,3.602-1.983
	c1.493-2.431,1.554-5.842,1.624-8.829c0.002-0.45,0.046-0.89,0.022-1.323c0.841-25.364,13.887-49.927,26.504-70.597
	c7.918-12.913,15.43-22.167,23.575-29.132c3.209-2.754,5.944-4.681,8.626-6.108c0.938-0.504,1.884-0.898,2.808-1.249
	c1.2-0.457,2.305-0.907,3.3-1.537c1.352-0.906,2.29-2.513,2.543-4.318c0.179-1.719-0.315-3.351-1.304-4.396
	c-1.293-1.413-2.694-2.028-4.259-2.017c-4.636,0.099-9.963,5.938-13.862,10.169c-1.371,1.479-2.542,2.751-3.555,3.642l-0.63,0.585
	c-2.062,1.84-4.173,3.736-5.88,5.899c-0.795,1.05-1.374,2.229-2.026,3.512c-0.509,1.052-1.044,2.119-1.718,3.144
	c-0.65,0.996-1.303,1.951-1.941,2.918c-2.712,4.102-5.537,8.309-7.981,12.659c-1.122,2.003-2.232,3.978-3.341,5.967
	c-5.066,8.88-10.267,18.086-14.576,27.514c-3.066,6.624-5.438,12.766-7.264,18.778c-0.757,2.6-1.419,5.353-2.067,7.956
	c-0.8,3.364-1.617,6.853-2.77,10.222l-0.587,1.726l-1.296-1.292c-4.812-4.789-7.551-11.308-10.273-17.611
	c-0.971-2.26-1.893-4.427-2.9-6.479c-0.294-0.574-0.64-1.429-1.085-2.481c-1.721-4.17-5.269-12.798-8.94-12.728
	c-0.543,0.02-1.059,0.2-1.612,0.575c-2.031,1.399-2.346,4.859-2.625,7.635c-0.08,0.497-0.096,0.947-0.139,1.4
	c-0.6,5.05-1.307,10.138-1.997,14.459c-0.18,1.392-0.388,2.771-0.621,4.181c-0.554,3.697-1.158,7.591-1.608,11.388
	c-0.068,0.633-0.131,1.319-0.157,1.976c-0.359,3.572-0.735,7.281-2.577,10.572l-0.475,0.817l-0.899-0.317
	c-2.306-0.838-3.804-2.737-5.08-4.425c-0.198-0.243-0.396-0.484-0.566-0.729c-1.5-1.914-3.292-3.748-4.996-5.509
	c-0.447-0.451-0.893-0.877-1.314-1.344c-0.707-0.771-1.44-1.552-2.164-2.359c-2.643-2.853-5.351-5.834-8.592-7.733
	c-1.508-0.905-3.57-1.436-5.404-1.388c-1.82,0.048-4.192,0.66-4.838,3.29c-0.857,3.329,2.507,7.289,4.085,9.169
	c5.917,7.036,13.497,12.514,20.843,17.791l1.102,0.777c0.382,0.322,1.013,0.839,1.789,1.48c2.922,2.309,8.96,7.265,12.083,7.159
	C40.506,583.713,41.51,583.668,41.727,581.443z M180.211,547.97c0.421,0.027,0.882-0.054,1.371-0.284
	c0.733-0.299,1.085-1.127,1.465-2.05c0.583-1.262,1.303-2.972,3.501-3.039c2.252-0.122,4.735-0.76,7.165-1.887
	c3.989-1.913,6.948-5.861,9.77-9.688c0.407-0.543,0.787-1.059,1.194-1.56c5.672-7.519,7.558-18.835-0.136-25.104
	c-1.846-1.493-3.935-2.333-6.283-2.47c-2.619-0.162-5.387,0.516-7.965,1.981c-1.94,1.14-3.229,2.931-4.56,4.844
	c-1.33,1.874-2.687,3.801-4.817,5.09l-1.669,0.949l0.014-1.913c0.027-1.1-0.014-2.239-0.068-3.446
	c-0.163-4.058-0.353-8.591,1.547-12.362c1.371-2.714,1.913-5.414,2.469-8.278c0.299-1.41,0.597-2.862,0.991-4.342
	c0.42-1.696,1.289-3.147,2.117-4.531c0.665-1.14,1.289-2.213,1.696-3.393c0.163-0.543,0.367-1.06,0.542-1.574
	c0.625-1.954,1.303-3.963,2.361-5.943c0.231-0.394,0.461-0.814,0.706-1.249c1.967-3.486,4.437-7.815,2.361-10.99
	c-0.896-1.398-2.483-1.684-3.311-1.764c-1.628-0.109-3.311,0.434-4.383,1.424c-1.181,1.085-1.777,2.972-2.347,4.845
	c-0.245,0.651-0.421,1.275-0.652,1.845c-0.529,1.438-1.302,2.688-2.036,3.881c-0.787,1.262-1.493,2.443-1.94,3.746
	c-1.574,4.559-2.185,9.688-2.754,14.641c-0.109,1.126-0.271,2.266-0.408,3.405c-0.271,2.443-0.841,4.804-1.37,7.166
	c-0.583,2.551-1.181,5.183-1.452,7.843c-0.963,9.743-0.814,19.133,0.461,27.912l0.068,0.638
	C175.639,545.066,178.299,547.835,180.211,547.97L180.211,547.97z M193.646,507.656c1.289-0.611,2.809-0.855,4.492-0.746
	c1.085,0.068,9.634,4.125,1.9,15.821c-3.135,4.723-10.15,10.829-14.547,11.358c0,0,6.08-1.235-1.438,0.177
	c-7.49,1.384-0.882-19.541,7.789-25.511C192.275,508.267,193.089,507.86,193.646,507.656z M101.762,551.219l0.082-0.026
	c3.27-1.234,5.807-1.818,8.508-1.805c1.316-0.041,2.619-0.325,3.976-0.638c1.384-0.325,2.795-0.651,4.288-0.679
	c0.665-0.014,1.384-0.014,2.116,0.055c2.442,0.162,4.913,0.651,7.3,1.126c1.886,0.394,3.813,0.773,5.686,0.99
	c0.285,0.027,0.543,0.055,0.773,0.055c3.434,0.218,6.948-0.516,10.34-1.263l1.072-0.23c3.569-0.772,8.033-1.709,10.652-4.41
	c1.004-1.071,1.465-2.442,1.262-3.854c-0.204-1.262-0.923-2.253-2.077-2.836c-0.624-0.353-1.289-0.543-2.062-0.597
	c-2.47-0.163-5.347,1.289-7.884,2.537c-1.248,0.638-2.429,1.208-3.514,1.602c-0.842,0.312-1.628,0.651-2.416,0.991
	c-2.605,1.098-5.374,2.225-8.277,2.062c-0.542-0.026-1.032-0.108-1.52-0.218c-0.57-0.107-1.275-0.352-2.144-0.746l-1.004-0.447
	l0.461-0.99c1.153-2.537,3.175-4.506,5.183-6.459c1.629-1.588,3.312-3.244,4.397-5.143c1.94-3.365,1.859-8.007-2.063-10.354
	c-1.547-0.91-3.243-1.426-4.994-1.534c-6.025-0.407-11.751,3.826-14.818,7.572c-2.619,3.175-3.609,6.133-3.121,9.01
	c0.027,0.407,0.136,0.801,0.19,1.154c0.435,1.927,1.018,4.531-2.28,5.645c-1.954,0.678-4.043,0.638-5.631,0.515
	c-0.557-0.026-1.154-0.066-1.724-0.149l-0.678-0.054c-0.706-0.081-1.384-0.136-2.104-0.203c-2.985-0.163-5.957,0-7.897,2.375
	c-1.669,2.021-2.619,5.074-1.316,7.028c0.719,1.099,1.818,1.683,3.365,1.791C96.456,553.255,99.646,552.035,101.762,551.219z
	 M118.344,531.165l0.258-1.385l0.177,0.028c1.506-3.528,6.323-6.69,10.204-6.46c0.936,0.068,1.764,0.325,2.524,0.773l0.38,0.19
	l0.136,0.42c1.249,4.126-3.311,8.061-6.011,10.422l-0.584,0.461c-1.546,1.384-2.876,1.602-3.717,1.547
	c-0.978-0.081-1.846-0.516-2.483-1.315c-0.841-1.073-1.167-2.592-0.936-4.302C118.317,531.408,118.317,531.299,118.344,531.165z"/>
</svg>
